<mxfile host="65bd71144e">
    <diagram id="oUo1m9IO2qKZvMtnQcwq" name="RAM64">
        <mxGraphModel dx="635" dy="752" grid="1" gridSize="10" guides="1" tooltips="1" connect="1" arrows="1" fold="1" page="1" pageScale="1" pageWidth="827" pageHeight="1169" background="#ffffff" math="0" shadow="0">
            <root>
                <mxCell id="0"/>
                <mxCell id="1" parent="0"/>
                <mxCell id="NOanYkGnCxMtZh4Hi_Gc-11" style="edgeStyle=none;html=1;entryX=0;entryY=0.25;entryDx=0;entryDy=0;strokeColor=#000000;" parent="1" source="NOanYkGnCxMtZh4Hi_Gc-1" target="NOanYkGnCxMtZh4Hi_Gc-2" edge="1">
                    <mxGeometry relative="1" as="geometry"/>
                </mxCell>
                <mxCell id="NOanYkGnCxMtZh4Hi_Gc-12" style="edgeStyle=none;html=1;entryX=0;entryY=0.5;entryDx=0;entryDy=0;strokeColor=#000000;" parent="1" source="NOanYkGnCxMtZh4Hi_Gc-1" target="NOanYkGnCxMtZh4Hi_Gc-3" edge="1">
                    <mxGeometry relative="1" as="geometry"/>
                </mxCell>
                <mxCell id="NOanYkGnCxMtZh4Hi_Gc-13" style="edgeStyle=none;html=1;entryX=0;entryY=0.5;entryDx=0;entryDy=0;strokeColor=#000000;" parent="1" source="NOanYkGnCxMtZh4Hi_Gc-1" target="NOanYkGnCxMtZh4Hi_Gc-4" edge="1">
                    <mxGeometry relative="1" as="geometry"/>
                </mxCell>
                <mxCell id="NOanYkGnCxMtZh4Hi_Gc-14" style="edgeStyle=none;html=1;entryX=0;entryY=0.5;entryDx=0;entryDy=0;strokeColor=#000000;" parent="1" source="NOanYkGnCxMtZh4Hi_Gc-1" target="NOanYkGnCxMtZh4Hi_Gc-5" edge="1">
                    <mxGeometry relative="1" as="geometry"/>
                </mxCell>
                <mxCell id="NOanYkGnCxMtZh4Hi_Gc-15" style="edgeStyle=none;html=1;entryX=0;entryY=0.5;entryDx=0;entryDy=0;strokeColor=#000000;" parent="1" source="NOanYkGnCxMtZh4Hi_Gc-1" target="NOanYkGnCxMtZh4Hi_Gc-7" edge="1">
                    <mxGeometry relative="1" as="geometry"/>
                </mxCell>
                <mxCell id="NOanYkGnCxMtZh4Hi_Gc-16" style="edgeStyle=none;html=1;entryX=0;entryY=0.5;entryDx=0;entryDy=0;strokeColor=#000000;" parent="1" source="NOanYkGnCxMtZh4Hi_Gc-1" target="NOanYkGnCxMtZh4Hi_Gc-8" edge="1">
                    <mxGeometry relative="1" as="geometry"/>
                </mxCell>
                <mxCell id="NOanYkGnCxMtZh4Hi_Gc-17" style="edgeStyle=none;html=1;entryX=0;entryY=0.5;entryDx=0;entryDy=0;strokeColor=#000000;" parent="1" source="NOanYkGnCxMtZh4Hi_Gc-1" target="NOanYkGnCxMtZh4Hi_Gc-9" edge="1">
                    <mxGeometry relative="1" as="geometry"/>
                </mxCell>
                <mxCell id="NOanYkGnCxMtZh4Hi_Gc-18" style="edgeStyle=none;html=1;entryX=0;entryY=0.5;entryDx=0;entryDy=0;strokeColor=#000000;" parent="1" source="NOanYkGnCxMtZh4Hi_Gc-1" target="NOanYkGnCxMtZh4Hi_Gc-10" edge="1">
                    <mxGeometry relative="1" as="geometry"/>
                </mxCell>
                <mxCell id="NOanYkGnCxMtZh4Hi_Gc-1" value="Demux&lt;br&gt;8Way" style="shadow=0;dashed=0;align=center;html=1;strokeWidth=1;shape=mxgraph.electrical.abstract.mux2;operation=demux;" parent="1" vertex="1">
                    <mxGeometry x="150" y="190" width="80" height="120" as="geometry"/>
                </mxCell>
                <mxCell id="NOanYkGnCxMtZh4Hi_Gc-20" style="edgeStyle=none;html=1;entryX=0.116;entryY=0.26;entryDx=0;entryDy=0;entryPerimeter=0;strokeColor=#000000;exitX=1;exitY=0.5;exitDx=0;exitDy=0;" parent="1" source="NOanYkGnCxMtZh4Hi_Gc-2" target="NOanYkGnCxMtZh4Hi_Gc-19" edge="1">
                    <mxGeometry relative="1" as="geometry"/>
                </mxCell>
                <mxCell id="NOanYkGnCxMtZh4Hi_Gc-2" value="RAM8" style="rounded=0;whiteSpace=wrap;html=1;" parent="1" vertex="1">
                    <mxGeometry x="280" y="50" width="80" height="40" as="geometry"/>
                </mxCell>
                <mxCell id="NOanYkGnCxMtZh4Hi_Gc-21" style="edgeStyle=none;html=1;entryX=0;entryY=0.21666666666666667;entryDx=0;entryDy=3;entryPerimeter=0;strokeColor=#000000;exitX=1;exitY=0.5;exitDx=0;exitDy=0;" parent="1" source="NOanYkGnCxMtZh4Hi_Gc-3" target="NOanYkGnCxMtZh4Hi_Gc-19" edge="1">
                    <mxGeometry relative="1" as="geometry"/>
                </mxCell>
                <mxCell id="NOanYkGnCxMtZh4Hi_Gc-3" value="RAM8" style="rounded=0;whiteSpace=wrap;html=1;" parent="1" vertex="1">
                    <mxGeometry x="280" y="100" width="80" height="40" as="geometry"/>
                </mxCell>
                <mxCell id="NOanYkGnCxMtZh4Hi_Gc-22" style="edgeStyle=none;html=1;entryX=0;entryY=0.21666666666666667;entryDx=0;entryDy=3;entryPerimeter=0;strokeColor=#000000;exitX=1;exitY=0.5;exitDx=0;exitDy=0;" parent="1" source="NOanYkGnCxMtZh4Hi_Gc-4" target="NOanYkGnCxMtZh4Hi_Gc-19" edge="1">
                    <mxGeometry relative="1" as="geometry"/>
                </mxCell>
                <mxCell id="NOanYkGnCxMtZh4Hi_Gc-4" value="RAM8" style="rounded=0;whiteSpace=wrap;html=1;" parent="1" vertex="1">
                    <mxGeometry x="280" y="150" width="80" height="40" as="geometry"/>
                </mxCell>
                <mxCell id="NOanYkGnCxMtZh4Hi_Gc-23" style="edgeStyle=none;html=1;entryX=0.1;entryY=0.344;entryDx=0;entryDy=0;entryPerimeter=0;strokeColor=#000000;" parent="1" source="NOanYkGnCxMtZh4Hi_Gc-5" target="NOanYkGnCxMtZh4Hi_Gc-19" edge="1">
                    <mxGeometry relative="1" as="geometry"/>
                </mxCell>
                <mxCell id="NOanYkGnCxMtZh4Hi_Gc-5" value="RAM8" style="rounded=0;whiteSpace=wrap;html=1;" parent="1" vertex="1">
                    <mxGeometry x="280" y="200" width="80" height="40" as="geometry"/>
                </mxCell>
                <mxCell id="NOanYkGnCxMtZh4Hi_Gc-24" style="edgeStyle=none;html=1;entryX=0.053;entryY=0.5;entryDx=0;entryDy=0;entryPerimeter=0;strokeColor=#000000;" parent="1" source="NOanYkGnCxMtZh4Hi_Gc-7" target="NOanYkGnCxMtZh4Hi_Gc-19" edge="1">
                    <mxGeometry relative="1" as="geometry"/>
                </mxCell>
                <mxCell id="NOanYkGnCxMtZh4Hi_Gc-7" value="RAM8" style="rounded=0;whiteSpace=wrap;html=1;" parent="1" vertex="1">
                    <mxGeometry x="280" y="250" width="80" height="40" as="geometry"/>
                </mxCell>
                <mxCell id="NOanYkGnCxMtZh4Hi_Gc-25" style="edgeStyle=none;html=1;entryX=0;entryY=0.65;entryDx=0;entryDy=3;entryPerimeter=0;strokeColor=#000000;exitX=1;exitY=0.5;exitDx=0;exitDy=0;" parent="1" source="NOanYkGnCxMtZh4Hi_Gc-8" target="NOanYkGnCxMtZh4Hi_Gc-19" edge="1">
                    <mxGeometry relative="1" as="geometry"/>
                </mxCell>
                <mxCell id="NOanYkGnCxMtZh4Hi_Gc-8" value="RAM8" style="rounded=0;whiteSpace=wrap;html=1;" parent="1" vertex="1">
                    <mxGeometry x="280" y="300" width="80" height="40" as="geometry"/>
                </mxCell>
                <mxCell id="NOanYkGnCxMtZh4Hi_Gc-26" style="edgeStyle=none;html=1;entryX=0;entryY=0.65;entryDx=0;entryDy=3;entryPerimeter=0;strokeColor=#000000;exitX=1;exitY=0.5;exitDx=0;exitDy=0;" parent="1" source="NOanYkGnCxMtZh4Hi_Gc-9" target="NOanYkGnCxMtZh4Hi_Gc-19" edge="1">
                    <mxGeometry relative="1" as="geometry"/>
                </mxCell>
                <mxCell id="NOanYkGnCxMtZh4Hi_Gc-9" value="RAM8" style="rounded=0;whiteSpace=wrap;html=1;" parent="1" vertex="1">
                    <mxGeometry x="280" y="350" width="80" height="40" as="geometry"/>
                </mxCell>
                <mxCell id="NOanYkGnCxMtZh4Hi_Gc-27" style="edgeStyle=none;html=1;entryX=0.131;entryY=0.677;entryDx=0;entryDy=0;entryPerimeter=0;strokeColor=#000000;exitX=1;exitY=0.5;exitDx=0;exitDy=0;" parent="1" source="NOanYkGnCxMtZh4Hi_Gc-10" target="NOanYkGnCxMtZh4Hi_Gc-19" edge="1">
                    <mxGeometry relative="1" as="geometry"/>
                </mxCell>
                <mxCell id="NOanYkGnCxMtZh4Hi_Gc-10" value="RAM8" style="rounded=0;whiteSpace=wrap;html=1;" parent="1" vertex="1">
                    <mxGeometry x="280" y="400" width="80" height="40" as="geometry"/>
                </mxCell>
                <mxCell id="NOanYkGnCxMtZh4Hi_Gc-34" style="edgeStyle=none;html=1;strokeColor=#000000;" parent="1" source="NOanYkGnCxMtZh4Hi_Gc-19" edge="1">
                    <mxGeometry relative="1" as="geometry">
                        <mxPoint x="561.5384615384615" y="240" as="targetPoint"/>
                    </mxGeometry>
                </mxCell>
                <mxCell id="NOanYkGnCxMtZh4Hi_Gc-35" value="out[16]" style="edgeLabel;html=1;align=center;verticalAlign=middle;resizable=0;points=[];" parent="NOanYkGnCxMtZh4Hi_Gc-34" vertex="1" connectable="0">
                    <mxGeometry x="-0.3212" relative="1" as="geometry">
                        <mxPoint x="3" as="offset"/>
                    </mxGeometry>
                </mxCell>
                <mxCell id="NOanYkGnCxMtZh4Hi_Gc-19" value="Mux&lt;br&gt;8Way16" style="shadow=0;dashed=0;align=center;html=1;strokeWidth=1;shape=mxgraph.electrical.abstract.mux2;" parent="1" vertex="1">
                    <mxGeometry x="414" y="180" width="80" height="120" as="geometry"/>
                </mxCell>
                <mxCell id="NOanYkGnCxMtZh4Hi_Gc-28" value="" style="endArrow=classic;html=1;strokeColor=#000000;" parent="1" edge="1">
                    <mxGeometry width="50" height="50" relative="1" as="geometry">
                        <mxPoint x="40" y="215" as="sourcePoint"/>
                        <mxPoint x="140" y="215" as="targetPoint"/>
                        <Array as="points">
                            <mxPoint x="140" y="215"/>
                        </Array>
                    </mxGeometry>
                </mxCell>
                <mxCell id="NOanYkGnCxMtZh4Hi_Gc-29" value="in[16]" style="edgeLabel;html=1;align=center;verticalAlign=middle;resizable=0;points=[];" parent="NOanYkGnCxMtZh4Hi_Gc-28" vertex="1" connectable="0">
                    <mxGeometry x="-0.2154" y="3" relative="1" as="geometry">
                        <mxPoint as="offset"/>
                    </mxGeometry>
                </mxCell>
                <mxCell id="NOanYkGnCxMtZh4Hi_Gc-30" value="" style="endArrow=classic;html=1;strokeColor=#000000;" parent="1" edge="1">
                    <mxGeometry width="50" height="50" relative="1" as="geometry">
                        <mxPoint x="40" y="249.23" as="sourcePoint"/>
                        <mxPoint x="140" y="249.23" as="targetPoint"/>
                        <Array as="points">
                            <mxPoint x="140" y="249.23"/>
                        </Array>
                    </mxGeometry>
                </mxCell>
                <mxCell id="NOanYkGnCxMtZh4Hi_Gc-31" value="load" style="edgeLabel;html=1;align=center;verticalAlign=middle;resizable=0;points=[];" parent="NOanYkGnCxMtZh4Hi_Gc-30" vertex="1" connectable="0">
                    <mxGeometry x="-0.2154" y="3" relative="1" as="geometry">
                        <mxPoint as="offset"/>
                    </mxGeometry>
                </mxCell>
                <mxCell id="NOanYkGnCxMtZh4Hi_Gc-32" value="" style="endArrow=classic;html=1;strokeColor=#000000;" parent="1" edge="1">
                    <mxGeometry width="50" height="50" relative="1" as="geometry">
                        <mxPoint x="40" y="280" as="sourcePoint"/>
                        <mxPoint x="140" y="280" as="targetPoint"/>
                        <Array as="points">
                            <mxPoint x="140" y="280"/>
                        </Array>
                    </mxGeometry>
                </mxCell>
                <mxCell id="NOanYkGnCxMtZh4Hi_Gc-33" value="adress[6]" style="edgeLabel;html=1;align=center;verticalAlign=middle;resizable=0;points=[];" parent="NOanYkGnCxMtZh4Hi_Gc-32" vertex="1" connectable="0">
                    <mxGeometry x="-0.2154" y="3" relative="1" as="geometry">
                        <mxPoint as="offset"/>
                    </mxGeometry>
                </mxCell>
                <mxCell id="NOanYkGnCxMtZh4Hi_Gc-36" value="adressビットの流れ" style="text;html=1;align=center;verticalAlign=middle;resizable=0;points=[];autosize=1;strokeColor=none;fillColor=none;fontColor=#000000;" parent="1" vertex="1">
                    <mxGeometry x="40" y="470" width="120" height="20" as="geometry"/>
                </mxCell>
                <mxCell id="NOanYkGnCxMtZh4Hi_Gc-37" value="" style="shape=table;startSize=0;container=1;collapsible=0;childLayout=tableLayout;fontColor=#FFFFFF;" parent="1" vertex="1">
                    <mxGeometry x="40" y="500" width="640" height="90" as="geometry"/>
                </mxCell>
                <mxCell id="NOanYkGnCxMtZh4Hi_Gc-38" value="" style="shape=partialRectangle;collapsible=0;dropTarget=0;pointerEvents=0;fillColor=none;top=0;left=0;bottom=0;right=0;points=[[0,0.5],[1,0.5]];portConstraint=eastwest;fontColor=#000000;" parent="NOanYkGnCxMtZh4Hi_Gc-37" vertex="1">
                    <mxGeometry width="640" height="45" as="geometry"/>
                </mxCell>
                <mxCell id="NOanYkGnCxMtZh4Hi_Gc-40" value="15" style="shape=partialRectangle;html=1;whiteSpace=wrap;connectable=0;overflow=hidden;fillColor=none;top=0;left=0;bottom=0;right=0;pointerEvents=1;fontColor=#FFFFFF;" parent="NOanYkGnCxMtZh4Hi_Gc-38" vertex="1">
                    <mxGeometry width="40" height="45" as="geometry">
                        <mxRectangle width="40" height="45" as="alternateBounds"/>
                    </mxGeometry>
                </mxCell>
                <mxCell id="NOanYkGnCxMtZh4Hi_Gc-68" value="14" style="shape=partialRectangle;html=1;whiteSpace=wrap;connectable=0;overflow=hidden;fillColor=none;top=0;left=0;bottom=0;right=0;pointerEvents=1;fontColor=#FFFFFF;" parent="NOanYkGnCxMtZh4Hi_Gc-38" vertex="1">
                    <mxGeometry x="40" width="40" height="45" as="geometry">
                        <mxRectangle width="40" height="45" as="alternateBounds"/>
                    </mxGeometry>
                </mxCell>
                <mxCell id="NOanYkGnCxMtZh4Hi_Gc-70" value="13" style="shape=partialRectangle;html=1;whiteSpace=wrap;connectable=0;overflow=hidden;fillColor=none;top=0;left=0;bottom=0;right=0;pointerEvents=1;fontColor=#FFFFFF;" parent="NOanYkGnCxMtZh4Hi_Gc-38" vertex="1">
                    <mxGeometry x="80" width="40" height="45" as="geometry">
                        <mxRectangle width="40" height="45" as="alternateBounds"/>
                    </mxGeometry>
                </mxCell>
                <mxCell id="NOanYkGnCxMtZh4Hi_Gc-41" value="12" style="shape=partialRectangle;html=1;whiteSpace=wrap;connectable=0;overflow=hidden;fillColor=none;top=0;left=0;bottom=0;right=0;pointerEvents=1;fontColor=#FFFFFF;" parent="NOanYkGnCxMtZh4Hi_Gc-38" vertex="1">
                    <mxGeometry x="120" width="40" height="45" as="geometry">
                        <mxRectangle width="40" height="45" as="alternateBounds"/>
                    </mxGeometry>
                </mxCell>
                <mxCell id="NOanYkGnCxMtZh4Hi_Gc-42" value="11" style="shape=partialRectangle;html=1;whiteSpace=wrap;connectable=0;overflow=hidden;fillColor=none;top=0;left=0;bottom=0;right=0;pointerEvents=1;fontColor=#FFFFFF;" parent="NOanYkGnCxMtZh4Hi_Gc-38" vertex="1">
                    <mxGeometry x="160" width="40" height="45" as="geometry">
                        <mxRectangle width="40" height="45" as="alternateBounds"/>
                    </mxGeometry>
                </mxCell>
                <mxCell id="NOanYkGnCxMtZh4Hi_Gc-43" value="10" style="shape=partialRectangle;html=1;whiteSpace=wrap;connectable=0;overflow=hidden;fillColor=none;top=0;left=0;bottom=0;right=0;pointerEvents=1;fontColor=#FFFFFF;" parent="NOanYkGnCxMtZh4Hi_Gc-38" vertex="1">
                    <mxGeometry x="200" width="40" height="45" as="geometry">
                        <mxRectangle width="40" height="45" as="alternateBounds"/>
                    </mxGeometry>
                </mxCell>
                <mxCell id="NOanYkGnCxMtZh4Hi_Gc-44" value="9" style="shape=partialRectangle;html=1;whiteSpace=wrap;connectable=0;overflow=hidden;fillColor=none;top=0;left=0;bottom=0;right=0;pointerEvents=1;fontColor=#FFFFFF;" parent="NOanYkGnCxMtZh4Hi_Gc-38" vertex="1">
                    <mxGeometry x="240" width="40" height="45" as="geometry">
                        <mxRectangle width="40" height="45" as="alternateBounds"/>
                    </mxGeometry>
                </mxCell>
                <mxCell id="NOanYkGnCxMtZh4Hi_Gc-45" value="8" style="shape=partialRectangle;html=1;whiteSpace=wrap;connectable=0;overflow=hidden;fillColor=none;top=0;left=0;bottom=0;right=0;pointerEvents=1;fontColor=#FFFFFF;" parent="NOanYkGnCxMtZh4Hi_Gc-38" vertex="1">
                    <mxGeometry x="280" width="40" height="45" as="geometry">
                        <mxRectangle width="40" height="45" as="alternateBounds"/>
                    </mxGeometry>
                </mxCell>
                <mxCell id="NOanYkGnCxMtZh4Hi_Gc-46" value="7" style="shape=partialRectangle;html=1;whiteSpace=wrap;connectable=0;overflow=hidden;fillColor=none;top=0;left=0;bottom=0;right=0;pointerEvents=1;fontColor=#FFFFFF;" parent="NOanYkGnCxMtZh4Hi_Gc-38" vertex="1">
                    <mxGeometry x="320" width="40" height="45" as="geometry">
                        <mxRectangle width="40" height="45" as="alternateBounds"/>
                    </mxGeometry>
                </mxCell>
                <mxCell id="NOanYkGnCxMtZh4Hi_Gc-47" value="6" style="shape=partialRectangle;html=1;whiteSpace=wrap;connectable=0;overflow=hidden;fillColor=none;top=0;left=0;bottom=0;right=0;pointerEvents=1;fontColor=#FFFFFF;" parent="NOanYkGnCxMtZh4Hi_Gc-38" vertex="1">
                    <mxGeometry x="360" width="40" height="45" as="geometry">
                        <mxRectangle width="40" height="45" as="alternateBounds"/>
                    </mxGeometry>
                </mxCell>
                <mxCell id="NOanYkGnCxMtZh4Hi_Gc-48" value="5" style="shape=partialRectangle;html=1;whiteSpace=wrap;connectable=0;overflow=hidden;fillColor=none;top=0;left=0;bottom=0;right=0;pointerEvents=1;fontColor=#FFFFFF;" parent="NOanYkGnCxMtZh4Hi_Gc-38" vertex="1">
                    <mxGeometry x="400" width="40" height="45" as="geometry">
                        <mxRectangle width="40" height="45" as="alternateBounds"/>
                    </mxGeometry>
                </mxCell>
                <mxCell id="NOanYkGnCxMtZh4Hi_Gc-49" value="4" style="shape=partialRectangle;html=1;whiteSpace=wrap;connectable=0;overflow=hidden;fillColor=none;top=0;left=0;bottom=0;right=0;pointerEvents=1;fontColor=#FFFFFF;" parent="NOanYkGnCxMtZh4Hi_Gc-38" vertex="1">
                    <mxGeometry x="440" width="40" height="45" as="geometry">
                        <mxRectangle width="40" height="45" as="alternateBounds"/>
                    </mxGeometry>
                </mxCell>
                <mxCell id="NOanYkGnCxMtZh4Hi_Gc-50" value="3" style="shape=partialRectangle;html=1;whiteSpace=wrap;connectable=0;overflow=hidden;fillColor=none;top=0;left=0;bottom=0;right=0;pointerEvents=1;fontColor=#FFFFFF;" parent="NOanYkGnCxMtZh4Hi_Gc-38" vertex="1">
                    <mxGeometry x="480" width="40" height="45" as="geometry">
                        <mxRectangle width="40" height="45" as="alternateBounds"/>
                    </mxGeometry>
                </mxCell>
                <mxCell id="NOanYkGnCxMtZh4Hi_Gc-51" value="2" style="shape=partialRectangle;html=1;whiteSpace=wrap;connectable=0;overflow=hidden;fillColor=none;top=0;left=0;bottom=0;right=0;pointerEvents=1;fontColor=#FFFFFF;" parent="NOanYkGnCxMtZh4Hi_Gc-38" vertex="1">
                    <mxGeometry x="520" width="40" height="45" as="geometry">
                        <mxRectangle width="40" height="45" as="alternateBounds"/>
                    </mxGeometry>
                </mxCell>
                <mxCell id="NOanYkGnCxMtZh4Hi_Gc-52" value="1" style="shape=partialRectangle;html=1;whiteSpace=wrap;connectable=0;overflow=hidden;fillColor=none;top=0;left=0;bottom=0;right=0;pointerEvents=1;fontColor=#FFFFFF;" parent="NOanYkGnCxMtZh4Hi_Gc-38" vertex="1">
                    <mxGeometry x="560" width="40" height="45" as="geometry">
                        <mxRectangle width="40" height="45" as="alternateBounds"/>
                    </mxGeometry>
                </mxCell>
                <mxCell id="FSmZHcb7E37LQvaW07hn-10" value="0" style="shape=partialRectangle;html=1;whiteSpace=wrap;connectable=0;overflow=hidden;fillColor=none;top=0;left=0;bottom=0;right=0;pointerEvents=1;fontColor=#FFFFFF;" parent="NOanYkGnCxMtZh4Hi_Gc-38" vertex="1">
                    <mxGeometry x="600" width="40" height="45" as="geometry">
                        <mxRectangle width="40" height="45" as="alternateBounds"/>
                    </mxGeometry>
                </mxCell>
                <mxCell id="NOanYkGnCxMtZh4Hi_Gc-53" value="" style="shape=partialRectangle;collapsible=0;dropTarget=0;pointerEvents=0;fillColor=none;top=0;left=0;bottom=0;right=0;points=[[0,0.5],[1,0.5]];portConstraint=eastwest;fontColor=#000000;" parent="NOanYkGnCxMtZh4Hi_Gc-37" vertex="1">
                    <mxGeometry y="45" width="640" height="45" as="geometry"/>
                </mxCell>
                <mxCell id="NOanYkGnCxMtZh4Hi_Gc-55" value="0" style="shape=partialRectangle;html=1;whiteSpace=wrap;connectable=0;overflow=hidden;fillColor=none;top=0;left=0;bottom=0;right=0;pointerEvents=1;fontColor=#FFFFFF;" parent="NOanYkGnCxMtZh4Hi_Gc-53" vertex="1">
                    <mxGeometry width="40" height="45" as="geometry">
                        <mxRectangle width="40" height="45" as="alternateBounds"/>
                    </mxGeometry>
                </mxCell>
                <mxCell id="NOanYkGnCxMtZh4Hi_Gc-69" value="0" style="shape=partialRectangle;html=1;whiteSpace=wrap;connectable=0;overflow=hidden;fillColor=none;top=0;left=0;bottom=0;right=0;pointerEvents=1;fontColor=#FFFFFF;" parent="NOanYkGnCxMtZh4Hi_Gc-53" vertex="1">
                    <mxGeometry x="40" width="40" height="45" as="geometry">
                        <mxRectangle width="40" height="45" as="alternateBounds"/>
                    </mxGeometry>
                </mxCell>
                <mxCell id="NOanYkGnCxMtZh4Hi_Gc-71" value="0" style="shape=partialRectangle;html=1;whiteSpace=wrap;connectable=0;overflow=hidden;fillColor=none;top=0;left=0;bottom=0;right=0;pointerEvents=1;fontColor=#FFFFFF;" parent="NOanYkGnCxMtZh4Hi_Gc-53" vertex="1">
                    <mxGeometry x="80" width="40" height="45" as="geometry">
                        <mxRectangle width="40" height="45" as="alternateBounds"/>
                    </mxGeometry>
                </mxCell>
                <mxCell id="NOanYkGnCxMtZh4Hi_Gc-56" value="0" style="shape=partialRectangle;html=1;whiteSpace=wrap;connectable=0;overflow=hidden;fillColor=none;top=0;left=0;bottom=0;right=0;pointerEvents=1;fontColor=#FFFFFF;" parent="NOanYkGnCxMtZh4Hi_Gc-53" vertex="1">
                    <mxGeometry x="120" width="40" height="45" as="geometry">
                        <mxRectangle width="40" height="45" as="alternateBounds"/>
                    </mxGeometry>
                </mxCell>
                <mxCell id="NOanYkGnCxMtZh4Hi_Gc-57" value="0" style="shape=partialRectangle;html=1;whiteSpace=wrap;connectable=0;overflow=hidden;fillColor=none;top=0;left=0;bottom=0;right=0;pointerEvents=1;fontColor=#FFFFFF;" parent="NOanYkGnCxMtZh4Hi_Gc-53" vertex="1">
                    <mxGeometry x="160" width="40" height="45" as="geometry">
                        <mxRectangle width="40" height="45" as="alternateBounds"/>
                    </mxGeometry>
                </mxCell>
                <mxCell id="NOanYkGnCxMtZh4Hi_Gc-58" value="0" style="shape=partialRectangle;html=1;whiteSpace=wrap;connectable=0;overflow=hidden;fillColor=none;top=0;left=0;bottom=0;right=0;pointerEvents=1;fontColor=#FFFFFF;" parent="NOanYkGnCxMtZh4Hi_Gc-53" vertex="1">
                    <mxGeometry x="200" width="40" height="45" as="geometry">
                        <mxRectangle width="40" height="45" as="alternateBounds"/>
                    </mxGeometry>
                </mxCell>
                <mxCell id="NOanYkGnCxMtZh4Hi_Gc-59" value="0" style="shape=partialRectangle;html=1;whiteSpace=wrap;connectable=0;overflow=hidden;fillColor=none;top=0;left=0;bottom=0;right=0;pointerEvents=1;fontColor=#FFFFFF;" parent="NOanYkGnCxMtZh4Hi_Gc-53" vertex="1">
                    <mxGeometry x="240" width="40" height="45" as="geometry">
                        <mxRectangle width="40" height="45" as="alternateBounds"/>
                    </mxGeometry>
                </mxCell>
                <mxCell id="NOanYkGnCxMtZh4Hi_Gc-60" value="0" style="shape=partialRectangle;html=1;whiteSpace=wrap;connectable=0;overflow=hidden;fillColor=none;top=0;left=0;bottom=0;right=0;pointerEvents=1;fontColor=#FFFFFF;" parent="NOanYkGnCxMtZh4Hi_Gc-53" vertex="1">
                    <mxGeometry x="280" width="40" height="45" as="geometry">
                        <mxRectangle width="40" height="45" as="alternateBounds"/>
                    </mxGeometry>
                </mxCell>
                <mxCell id="NOanYkGnCxMtZh4Hi_Gc-61" value="0" style="shape=partialRectangle;html=1;whiteSpace=wrap;connectable=0;overflow=hidden;fillColor=none;top=0;left=0;bottom=0;right=0;pointerEvents=1;fontColor=#FFFFFF;" parent="NOanYkGnCxMtZh4Hi_Gc-53" vertex="1">
                    <mxGeometry x="320" width="40" height="45" as="geometry">
                        <mxRectangle width="40" height="45" as="alternateBounds"/>
                    </mxGeometry>
                </mxCell>
                <mxCell id="NOanYkGnCxMtZh4Hi_Gc-62" value="0" style="shape=partialRectangle;html=1;whiteSpace=wrap;connectable=0;overflow=hidden;top=0;left=0;bottom=0;right=0;pointerEvents=1;" parent="NOanYkGnCxMtZh4Hi_Gc-53" vertex="1">
                    <mxGeometry x="360" width="40" height="45" as="geometry">
                        <mxRectangle width="40" height="45" as="alternateBounds"/>
                    </mxGeometry>
                </mxCell>
                <mxCell id="NOanYkGnCxMtZh4Hi_Gc-63" value="" style="shape=partialRectangle;html=1;whiteSpace=wrap;connectable=0;overflow=hidden;fillColor=#a20025;top=0;left=0;bottom=0;right=0;pointerEvents=1;fontColor=#ffffff;strokeColor=#6F0000;" parent="NOanYkGnCxMtZh4Hi_Gc-53" vertex="1">
                    <mxGeometry x="400" width="40" height="45" as="geometry">
                        <mxRectangle width="40" height="45" as="alternateBounds"/>
                    </mxGeometry>
                </mxCell>
                <mxCell id="NOanYkGnCxMtZh4Hi_Gc-64" value="" style="shape=partialRectangle;html=1;whiteSpace=wrap;connectable=0;overflow=hidden;fillColor=#a20025;top=0;left=0;bottom=0;right=0;pointerEvents=1;fontColor=#ffffff;strokeColor=#6F0000;" parent="NOanYkGnCxMtZh4Hi_Gc-53" vertex="1">
                    <mxGeometry x="440" width="40" height="45" as="geometry">
                        <mxRectangle width="40" height="45" as="alternateBounds"/>
                    </mxGeometry>
                </mxCell>
                <mxCell id="NOanYkGnCxMtZh4Hi_Gc-65" value="" style="shape=partialRectangle;html=1;whiteSpace=wrap;connectable=0;overflow=hidden;fillColor=#a20025;top=0;left=0;bottom=0;right=0;pointerEvents=1;fontColor=#ffffff;strokeColor=#6F0000;" parent="NOanYkGnCxMtZh4Hi_Gc-53" vertex="1">
                    <mxGeometry x="480" width="40" height="45" as="geometry">
                        <mxRectangle width="40" height="45" as="alternateBounds"/>
                    </mxGeometry>
                </mxCell>
                <mxCell id="NOanYkGnCxMtZh4Hi_Gc-66" value="" style="shape=partialRectangle;html=1;whiteSpace=wrap;connectable=0;overflow=hidden;fillColor=#1ba1e2;top=0;left=0;bottom=0;right=0;pointerEvents=1;fontColor=#ffffff;strokeColor=#000000;" parent="NOanYkGnCxMtZh4Hi_Gc-53" vertex="1">
                    <mxGeometry x="520" width="40" height="45" as="geometry">
                        <mxRectangle width="40" height="45" as="alternateBounds"/>
                    </mxGeometry>
                </mxCell>
                <mxCell id="NOanYkGnCxMtZh4Hi_Gc-67" value="" style="shape=partialRectangle;html=1;whiteSpace=wrap;connectable=0;overflow=hidden;fillColor=#1ba1e2;top=0;left=0;bottom=0;right=0;pointerEvents=1;fontColor=#ffffff;strokeColor=#000000;" parent="NOanYkGnCxMtZh4Hi_Gc-53" vertex="1">
                    <mxGeometry x="560" width="40" height="45" as="geometry">
                        <mxRectangle width="40" height="45" as="alternateBounds"/>
                    </mxGeometry>
                </mxCell>
                <mxCell id="FSmZHcb7E37LQvaW07hn-11" style="shape=partialRectangle;html=1;whiteSpace=wrap;connectable=0;overflow=hidden;fillColor=#1ba1e2;top=0;left=0;bottom=0;right=0;pointerEvents=1;fontColor=#ffffff;strokeColor=#000000;" parent="NOanYkGnCxMtZh4Hi_Gc-53" vertex="1">
                    <mxGeometry x="600" width="40" height="45" as="geometry">
                        <mxRectangle width="40" height="45" as="alternateBounds"/>
                    </mxGeometry>
                </mxCell>
                <mxCell id="FSmZHcb7E37LQvaW07hn-3" style="edgeStyle=none;html=1;entryX=0.628;entryY=1.077;entryDx=0;entryDy=0;entryPerimeter=0;fontColor=#FFFFFF;strokeColor=#000000;exitX=1;exitY=0.5;exitDx=0;exitDy=0;" parent="1" source="FSmZHcb7E37LQvaW07hn-1" target="NOanYkGnCxMtZh4Hi_Gc-53" edge="1">
                    <mxGeometry relative="1" as="geometry"/>
                </mxCell>
                <mxCell id="FSmZHcb7E37LQvaW07hn-1" value="使用しない" style="whiteSpace=wrap;html=1;rounded=1;arcSize=50;align=center;verticalAlign=middle;strokeWidth=1;autosize=1;spacing=4;treeFolding=1;treeMoving=1;newEdgeStyle={&quot;edgeStyle&quot;:&quot;entityRelationEdgeStyle&quot;,&quot;startArrow&quot;:&quot;none&quot;,&quot;endArrow&quot;:&quot;none&quot;,&quot;segment&quot;:10,&quot;curved&quot;:1};fontColor=#FFFFFF;" parent="1" vertex="1">
                    <mxGeometry x="195" y="660" width="100" height="30" as="geometry"/>
                </mxCell>
                <mxCell id="FSmZHcb7E37LQvaW07hn-2" value="" style="edgeStyle=entityRelationEdgeStyle;startArrow=none;endArrow=none;segment=10;curved=1;fontColor=#FFFFFF;strokeColor=#000000;exitX=0.005;exitY=1.052;exitDx=0;exitDy=0;exitPerimeter=0;" parent="1" source="NOanYkGnCxMtZh4Hi_Gc-53" target="FSmZHcb7E37LQvaW07hn-1" edge="1">
                    <mxGeometry relative="1" as="geometry">
                        <mxPoint x="160" y="680" as="sourcePoint"/>
                    </mxGeometry>
                </mxCell>
                <mxCell id="FSmZHcb7E37LQvaW07hn-5" style="edgeStyle=none;html=1;entryX=0.63;entryY=1.077;entryDx=0;entryDy=0;entryPerimeter=0;fontColor=#FFFFFF;strokeColor=#000000;" parent="1" source="FSmZHcb7E37LQvaW07hn-4" target="NOanYkGnCxMtZh4Hi_Gc-53" edge="1">
                    <mxGeometry relative="1" as="geometry"/>
                </mxCell>
                <mxCell id="FSmZHcb7E37LQvaW07hn-6" style="edgeStyle=none;html=1;entryX=0.81;entryY=1.027;entryDx=0;entryDy=0;entryPerimeter=0;fontColor=#FFFFFF;strokeColor=#000000;" parent="1" source="FSmZHcb7E37LQvaW07hn-4" target="NOanYkGnCxMtZh4Hi_Gc-53" edge="1">
                    <mxGeometry relative="1" as="geometry"/>
                </mxCell>
                <mxCell id="FSmZHcb7E37LQvaW07hn-4" value="RAM8選び" style="whiteSpace=wrap;html=1;rounded=1;arcSize=50;align=center;verticalAlign=middle;strokeWidth=1;autosize=1;spacing=4;treeFolding=1;treeMoving=1;newEdgeStyle={&quot;edgeStyle&quot;:&quot;entityRelationEdgeStyle&quot;,&quot;startArrow&quot;:&quot;none&quot;,&quot;endArrow&quot;:&quot;none&quot;,&quot;segment&quot;:10,&quot;curved&quot;:1};fontColor=#ffffff;fillColor=#a20025;strokeColor=#6F0000;" parent="1" vertex="1">
                    <mxGeometry x="450" y="660" width="100" height="30" as="geometry"/>
                </mxCell>
                <mxCell id="FSmZHcb7E37LQvaW07hn-8" style="edgeStyle=none;html=1;entryX=0.815;entryY=1.027;entryDx=0;entryDy=0;entryPerimeter=0;fontColor=#FFFFFF;strokeColor=#000000;" parent="1" source="FSmZHcb7E37LQvaW07hn-7" target="NOanYkGnCxMtZh4Hi_Gc-53" edge="1">
                    <mxGeometry relative="1" as="geometry"/>
                </mxCell>
                <mxCell id="FSmZHcb7E37LQvaW07hn-9" style="edgeStyle=none;html=1;entryX=0.994;entryY=1.052;entryDx=0;entryDy=0;entryPerimeter=0;fontColor=#FFFFFF;strokeColor=#000000;" parent="1" source="FSmZHcb7E37LQvaW07hn-7" target="NOanYkGnCxMtZh4Hi_Gc-53" edge="1">
                    <mxGeometry relative="1" as="geometry"/>
                </mxCell>
                <mxCell id="FSmZHcb7E37LQvaW07hn-7" value="RAM8内" style="whiteSpace=wrap;html=1;rounded=1;arcSize=50;align=center;verticalAlign=middle;strokeWidth=1;autosize=1;spacing=4;treeFolding=1;treeMoving=1;newEdgeStyle={&quot;edgeStyle&quot;:&quot;entityRelationEdgeStyle&quot;,&quot;startArrow&quot;:&quot;none&quot;,&quot;endArrow&quot;:&quot;none&quot;,&quot;segment&quot;:10,&quot;curved&quot;:1};fontColor=#ffffff;labelBackgroundColor=none;fillColor=#1ba1e2;strokeColor=#006EAF;" parent="1" vertex="1">
                    <mxGeometry x="570" y="660" width="90" height="30" as="geometry"/>
                </mxCell>
                <mxCell id="1EVKUFaoG9jGmEMucih4-1" value="&quot;何桁台&quot;&lt;br&gt;のRAMかみたいなイメージ" style="text;html=1;align=center;verticalAlign=middle;resizable=0;points=[];autosize=1;strokeColor=#6F0000;fillColor=#a20025;fontColor=#ffffff;" parent="1" vertex="1">
                    <mxGeometry x="420" y="705" width="160" height="30" as="geometry"/>
                </mxCell>
            </root>
        </mxGraphModel>
    </diagram>
    <diagram id="Zc39008vdnWNobocT-5V" name="コピー用">
        <mxGraphModel dx="1058" dy="1253" grid="1" gridSize="10" guides="1" tooltips="1" connect="1" arrows="1" fold="1" page="1" pageScale="1" pageWidth="827" pageHeight="1169" math="0" shadow="0">
            <root>
                <mxCell id="eEykTlpvzD9INDH0BhUj-0"/>
                <mxCell id="eEykTlpvzD9INDH0BhUj-1" parent="eEykTlpvzD9INDH0BhUj-0"/>
                <mxCell id="lym9cSHaweqcQBPVVTYo-0" value="" style="shape=table;startSize=0;container=1;collapsible=0;childLayout=tableLayout;fontColor=#FFFFFF;" parent="eEykTlpvzD9INDH0BhUj-1" vertex="1">
                    <mxGeometry x="40" y="500" width="640" height="90" as="geometry"/>
                </mxCell>
                <mxCell id="lym9cSHaweqcQBPVVTYo-1" value="" style="shape=partialRectangle;collapsible=0;dropTarget=0;pointerEvents=0;fillColor=none;top=0;left=0;bottom=0;right=0;points=[[0,0.5],[1,0.5]];portConstraint=eastwest;fontColor=#000000;" parent="lym9cSHaweqcQBPVVTYo-0" vertex="1">
                    <mxGeometry width="640" height="45" as="geometry"/>
                </mxCell>
                <mxCell id="lym9cSHaweqcQBPVVTYo-3" value="15" style="shape=partialRectangle;html=1;whiteSpace=wrap;connectable=0;overflow=hidden;fillColor=none;top=0;left=0;bottom=0;right=0;pointerEvents=1;fontColor=#FFFFFF;" parent="lym9cSHaweqcQBPVVTYo-1" vertex="1">
                    <mxGeometry width="40" height="45" as="geometry">
                        <mxRectangle width="40" height="45" as="alternateBounds"/>
                    </mxGeometry>
                </mxCell>
                <mxCell id="lym9cSHaweqcQBPVVTYo-4" value="14" style="shape=partialRectangle;html=1;whiteSpace=wrap;connectable=0;overflow=hidden;fillColor=none;top=0;left=0;bottom=0;right=0;pointerEvents=1;fontColor=#FFFFFF;" parent="lym9cSHaweqcQBPVVTYo-1" vertex="1">
                    <mxGeometry x="40" width="40" height="45" as="geometry">
                        <mxRectangle width="40" height="45" as="alternateBounds"/>
                    </mxGeometry>
                </mxCell>
                <mxCell id="lym9cSHaweqcQBPVVTYo-5" value="13" style="shape=partialRectangle;html=1;whiteSpace=wrap;connectable=0;overflow=hidden;fillColor=none;top=0;left=0;bottom=0;right=0;pointerEvents=1;fontColor=#FFFFFF;" parent="lym9cSHaweqcQBPVVTYo-1" vertex="1">
                    <mxGeometry x="80" width="40" height="45" as="geometry">
                        <mxRectangle width="40" height="45" as="alternateBounds"/>
                    </mxGeometry>
                </mxCell>
                <mxCell id="lym9cSHaweqcQBPVVTYo-6" value="12" style="shape=partialRectangle;html=1;whiteSpace=wrap;connectable=0;overflow=hidden;fillColor=none;top=0;left=0;bottom=0;right=0;pointerEvents=1;fontColor=#FFFFFF;" parent="lym9cSHaweqcQBPVVTYo-1" vertex="1">
                    <mxGeometry x="120" width="40" height="45" as="geometry">
                        <mxRectangle width="40" height="45" as="alternateBounds"/>
                    </mxGeometry>
                </mxCell>
                <mxCell id="lym9cSHaweqcQBPVVTYo-7" value="11" style="shape=partialRectangle;html=1;whiteSpace=wrap;connectable=0;overflow=hidden;fillColor=none;top=0;left=0;bottom=0;right=0;pointerEvents=1;fontColor=#FFFFFF;" parent="lym9cSHaweqcQBPVVTYo-1" vertex="1">
                    <mxGeometry x="160" width="40" height="45" as="geometry">
                        <mxRectangle width="40" height="45" as="alternateBounds"/>
                    </mxGeometry>
                </mxCell>
                <mxCell id="lym9cSHaweqcQBPVVTYo-8" value="10" style="shape=partialRectangle;html=1;whiteSpace=wrap;connectable=0;overflow=hidden;fillColor=none;top=0;left=0;bottom=0;right=0;pointerEvents=1;fontColor=#FFFFFF;" parent="lym9cSHaweqcQBPVVTYo-1" vertex="1">
                    <mxGeometry x="200" width="40" height="45" as="geometry">
                        <mxRectangle width="40" height="45" as="alternateBounds"/>
                    </mxGeometry>
                </mxCell>
                <mxCell id="lym9cSHaweqcQBPVVTYo-9" value="9" style="shape=partialRectangle;html=1;whiteSpace=wrap;connectable=0;overflow=hidden;fillColor=none;top=0;left=0;bottom=0;right=0;pointerEvents=1;fontColor=#FFFFFF;" parent="lym9cSHaweqcQBPVVTYo-1" vertex="1">
                    <mxGeometry x="240" width="40" height="45" as="geometry">
                        <mxRectangle width="40" height="45" as="alternateBounds"/>
                    </mxGeometry>
                </mxCell>
                <mxCell id="lym9cSHaweqcQBPVVTYo-10" value="8" style="shape=partialRectangle;html=1;whiteSpace=wrap;connectable=0;overflow=hidden;fillColor=none;top=0;left=0;bottom=0;right=0;pointerEvents=1;fontColor=#FFFFFF;" parent="lym9cSHaweqcQBPVVTYo-1" vertex="1">
                    <mxGeometry x="280" width="40" height="45" as="geometry">
                        <mxRectangle width="40" height="45" as="alternateBounds"/>
                    </mxGeometry>
                </mxCell>
                <mxCell id="lym9cSHaweqcQBPVVTYo-11" value="7" style="shape=partialRectangle;html=1;whiteSpace=wrap;connectable=0;overflow=hidden;fillColor=none;top=0;left=0;bottom=0;right=0;pointerEvents=1;fontColor=#FFFFFF;" parent="lym9cSHaweqcQBPVVTYo-1" vertex="1">
                    <mxGeometry x="320" width="40" height="45" as="geometry">
                        <mxRectangle width="40" height="45" as="alternateBounds"/>
                    </mxGeometry>
                </mxCell>
                <mxCell id="lym9cSHaweqcQBPVVTYo-12" value="6" style="shape=partialRectangle;html=1;whiteSpace=wrap;connectable=0;overflow=hidden;fillColor=none;top=0;left=0;bottom=0;right=0;pointerEvents=1;fontColor=#FFFFFF;" parent="lym9cSHaweqcQBPVVTYo-1" vertex="1">
                    <mxGeometry x="360" width="40" height="45" as="geometry">
                        <mxRectangle width="40" height="45" as="alternateBounds"/>
                    </mxGeometry>
                </mxCell>
                <mxCell id="lym9cSHaweqcQBPVVTYo-13" value="5" style="shape=partialRectangle;html=1;whiteSpace=wrap;connectable=0;overflow=hidden;fillColor=none;top=0;left=0;bottom=0;right=0;pointerEvents=1;fontColor=#FFFFFF;" parent="lym9cSHaweqcQBPVVTYo-1" vertex="1">
                    <mxGeometry x="400" width="40" height="45" as="geometry">
                        <mxRectangle width="40" height="45" as="alternateBounds"/>
                    </mxGeometry>
                </mxCell>
                <mxCell id="lym9cSHaweqcQBPVVTYo-14" value="4" style="shape=partialRectangle;html=1;whiteSpace=wrap;connectable=0;overflow=hidden;fillColor=none;top=0;left=0;bottom=0;right=0;pointerEvents=1;fontColor=#FFFFFF;" parent="lym9cSHaweqcQBPVVTYo-1" vertex="1">
                    <mxGeometry x="440" width="40" height="45" as="geometry">
                        <mxRectangle width="40" height="45" as="alternateBounds"/>
                    </mxGeometry>
                </mxCell>
                <mxCell id="lym9cSHaweqcQBPVVTYo-15" value="3" style="shape=partialRectangle;html=1;whiteSpace=wrap;connectable=0;overflow=hidden;fillColor=none;top=0;left=0;bottom=0;right=0;pointerEvents=1;fontColor=#FFFFFF;" parent="lym9cSHaweqcQBPVVTYo-1" vertex="1">
                    <mxGeometry x="480" width="40" height="45" as="geometry">
                        <mxRectangle width="40" height="45" as="alternateBounds"/>
                    </mxGeometry>
                </mxCell>
                <mxCell id="lym9cSHaweqcQBPVVTYo-16" value="2" style="shape=partialRectangle;html=1;whiteSpace=wrap;connectable=0;overflow=hidden;fillColor=none;top=0;left=0;bottom=0;right=0;pointerEvents=1;fontColor=#FFFFFF;" parent="lym9cSHaweqcQBPVVTYo-1" vertex="1">
                    <mxGeometry x="520" width="40" height="45" as="geometry">
                        <mxRectangle width="40" height="45" as="alternateBounds"/>
                    </mxGeometry>
                </mxCell>
                <mxCell id="lym9cSHaweqcQBPVVTYo-17" value="1" style="shape=partialRectangle;html=1;whiteSpace=wrap;connectable=0;overflow=hidden;fillColor=none;top=0;left=0;bottom=0;right=0;pointerEvents=1;fontColor=#FFFFFF;" parent="lym9cSHaweqcQBPVVTYo-1" vertex="1">
                    <mxGeometry x="560" width="40" height="45" as="geometry">
                        <mxRectangle width="40" height="45" as="alternateBounds"/>
                    </mxGeometry>
                </mxCell>
                <mxCell id="-IeSnKbffvvOZnKrn8eG-0" value="0" style="shape=partialRectangle;html=1;whiteSpace=wrap;connectable=0;overflow=hidden;fillColor=none;top=0;left=0;bottom=0;right=0;pointerEvents=1;fontColor=#FFFFFF;" parent="lym9cSHaweqcQBPVVTYo-1" vertex="1">
                    <mxGeometry x="600" width="40" height="45" as="geometry">
                        <mxRectangle width="40" height="45" as="alternateBounds"/>
                    </mxGeometry>
                </mxCell>
                <mxCell id="lym9cSHaweqcQBPVVTYo-18" value="" style="shape=partialRectangle;collapsible=0;dropTarget=0;pointerEvents=0;fillColor=none;top=0;left=0;bottom=0;right=0;points=[[0,0.5],[1,0.5]];portConstraint=eastwest;fontColor=#000000;" parent="lym9cSHaweqcQBPVVTYo-0" vertex="1">
                    <mxGeometry y="45" width="640" height="45" as="geometry"/>
                </mxCell>
                <mxCell id="lym9cSHaweqcQBPVVTYo-20" value="" style="shape=partialRectangle;html=1;whiteSpace=wrap;connectable=0;overflow=hidden;fillColor=none;top=0;left=0;bottom=0;right=0;pointerEvents=1;fontColor=#FFFFFF;" parent="lym9cSHaweqcQBPVVTYo-18" vertex="1">
                    <mxGeometry width="40" height="45" as="geometry">
                        <mxRectangle width="40" height="45" as="alternateBounds"/>
                    </mxGeometry>
                </mxCell>
                <mxCell id="lym9cSHaweqcQBPVVTYo-21" style="shape=partialRectangle;html=1;whiteSpace=wrap;connectable=0;overflow=hidden;fillColor=none;top=0;left=0;bottom=0;right=0;pointerEvents=1;fontColor=#FFFFFF;" parent="lym9cSHaweqcQBPVVTYo-18" vertex="1">
                    <mxGeometry x="40" width="40" height="45" as="geometry">
                        <mxRectangle width="40" height="45" as="alternateBounds"/>
                    </mxGeometry>
                </mxCell>
                <mxCell id="lym9cSHaweqcQBPVVTYo-22" style="shape=partialRectangle;html=1;whiteSpace=wrap;connectable=0;overflow=hidden;fillColor=none;top=0;left=0;bottom=0;right=0;pointerEvents=1;fontColor=#FFFFFF;" parent="lym9cSHaweqcQBPVVTYo-18" vertex="1">
                    <mxGeometry x="80" width="40" height="45" as="geometry">
                        <mxRectangle width="40" height="45" as="alternateBounds"/>
                    </mxGeometry>
                </mxCell>
                <mxCell id="lym9cSHaweqcQBPVVTYo-23" value="" style="shape=partialRectangle;html=1;whiteSpace=wrap;connectable=0;overflow=hidden;fillColor=none;top=0;left=0;bottom=0;right=0;pointerEvents=1;fontColor=#FFFFFF;" parent="lym9cSHaweqcQBPVVTYo-18" vertex="1">
                    <mxGeometry x="120" width="40" height="45" as="geometry">
                        <mxRectangle width="40" height="45" as="alternateBounds"/>
                    </mxGeometry>
                </mxCell>
                <mxCell id="lym9cSHaweqcQBPVVTYo-24" value="" style="shape=partialRectangle;html=1;whiteSpace=wrap;connectable=0;overflow=hidden;fillColor=none;top=0;left=0;bottom=0;right=0;pointerEvents=1;fontColor=#FFFFFF;" parent="lym9cSHaweqcQBPVVTYo-18" vertex="1">
                    <mxGeometry x="160" width="40" height="45" as="geometry">
                        <mxRectangle width="40" height="45" as="alternateBounds"/>
                    </mxGeometry>
                </mxCell>
                <mxCell id="lym9cSHaweqcQBPVVTYo-25" value="" style="shape=partialRectangle;html=1;whiteSpace=wrap;connectable=0;overflow=hidden;fillColor=none;top=0;left=0;bottom=0;right=0;pointerEvents=1;fontColor=#FFFFFF;" parent="lym9cSHaweqcQBPVVTYo-18" vertex="1">
                    <mxGeometry x="200" width="40" height="45" as="geometry">
                        <mxRectangle width="40" height="45" as="alternateBounds"/>
                    </mxGeometry>
                </mxCell>
                <mxCell id="lym9cSHaweqcQBPVVTYo-26" value="" style="shape=partialRectangle;html=1;whiteSpace=wrap;connectable=0;overflow=hidden;fillColor=none;top=0;left=0;bottom=0;right=0;pointerEvents=1;fontColor=#FFFFFF;" parent="lym9cSHaweqcQBPVVTYo-18" vertex="1">
                    <mxGeometry x="240" width="40" height="45" as="geometry">
                        <mxRectangle width="40" height="45" as="alternateBounds"/>
                    </mxGeometry>
                </mxCell>
                <mxCell id="lym9cSHaweqcQBPVVTYo-27" value="" style="shape=partialRectangle;html=1;whiteSpace=wrap;connectable=0;overflow=hidden;fillColor=none;top=0;left=0;bottom=0;right=0;pointerEvents=1;fontColor=#FFFFFF;" parent="lym9cSHaweqcQBPVVTYo-18" vertex="1">
                    <mxGeometry x="280" width="40" height="45" as="geometry">
                        <mxRectangle width="40" height="45" as="alternateBounds"/>
                    </mxGeometry>
                </mxCell>
                <mxCell id="lym9cSHaweqcQBPVVTYo-28" value="" style="shape=partialRectangle;html=1;whiteSpace=wrap;connectable=0;overflow=hidden;fillColor=none;top=0;left=0;bottom=0;right=0;pointerEvents=1;fontColor=#FFFFFF;" parent="lym9cSHaweqcQBPVVTYo-18" vertex="1">
                    <mxGeometry x="320" width="40" height="45" as="geometry">
                        <mxRectangle width="40" height="45" as="alternateBounds"/>
                    </mxGeometry>
                </mxCell>
                <mxCell id="lym9cSHaweqcQBPVVTYo-29" value="" style="shape=partialRectangle;html=1;whiteSpace=wrap;connectable=0;overflow=hidden;fillColor=none;top=0;left=0;bottom=0;right=0;pointerEvents=1;fontColor=#FFFFFF;" parent="lym9cSHaweqcQBPVVTYo-18" vertex="1">
                    <mxGeometry x="360" width="40" height="45" as="geometry">
                        <mxRectangle width="40" height="45" as="alternateBounds"/>
                    </mxGeometry>
                </mxCell>
                <mxCell id="lym9cSHaweqcQBPVVTYo-30" value="" style="shape=partialRectangle;html=1;whiteSpace=wrap;connectable=0;overflow=hidden;fillColor=none;top=0;left=0;bottom=0;right=0;pointerEvents=1;fontColor=#FFFFFF;" parent="lym9cSHaweqcQBPVVTYo-18" vertex="1">
                    <mxGeometry x="400" width="40" height="45" as="geometry">
                        <mxRectangle width="40" height="45" as="alternateBounds"/>
                    </mxGeometry>
                </mxCell>
                <mxCell id="lym9cSHaweqcQBPVVTYo-31" value="" style="shape=partialRectangle;html=1;whiteSpace=wrap;connectable=0;overflow=hidden;fillColor=none;top=0;left=0;bottom=0;right=0;pointerEvents=1;fontColor=#FFFFFF;" parent="lym9cSHaweqcQBPVVTYo-18" vertex="1">
                    <mxGeometry x="440" width="40" height="45" as="geometry">
                        <mxRectangle width="40" height="45" as="alternateBounds"/>
                    </mxGeometry>
                </mxCell>
                <mxCell id="lym9cSHaweqcQBPVVTYo-32" value="" style="shape=partialRectangle;html=1;whiteSpace=wrap;connectable=0;overflow=hidden;fillColor=none;top=0;left=0;bottom=0;right=0;pointerEvents=1;fontColor=#FFFFFF;" parent="lym9cSHaweqcQBPVVTYo-18" vertex="1">
                    <mxGeometry x="480" width="40" height="45" as="geometry">
                        <mxRectangle width="40" height="45" as="alternateBounds"/>
                    </mxGeometry>
                </mxCell>
                <mxCell id="lym9cSHaweqcQBPVVTYo-33" value="" style="shape=partialRectangle;html=1;whiteSpace=wrap;connectable=0;overflow=hidden;fillColor=none;top=0;left=0;bottom=0;right=0;pointerEvents=1;fontColor=#FFFFFF;" parent="lym9cSHaweqcQBPVVTYo-18" vertex="1">
                    <mxGeometry x="520" width="40" height="45" as="geometry">
                        <mxRectangle width="40" height="45" as="alternateBounds"/>
                    </mxGeometry>
                </mxCell>
                <mxCell id="lym9cSHaweqcQBPVVTYo-34" value="" style="shape=partialRectangle;html=1;whiteSpace=wrap;connectable=0;overflow=hidden;fillColor=none;top=0;left=0;bottom=0;right=0;pointerEvents=1;fontColor=#FFFFFF;" parent="lym9cSHaweqcQBPVVTYo-18" vertex="1">
                    <mxGeometry x="560" width="40" height="45" as="geometry">
                        <mxRectangle width="40" height="45" as="alternateBounds"/>
                    </mxGeometry>
                </mxCell>
                <mxCell id="-IeSnKbffvvOZnKrn8eG-1" style="shape=partialRectangle;html=1;whiteSpace=wrap;connectable=0;overflow=hidden;fillColor=none;top=0;left=0;bottom=0;right=0;pointerEvents=1;fontColor=#FFFFFF;" parent="lym9cSHaweqcQBPVVTYo-18" vertex="1">
                    <mxGeometry x="600" width="40" height="45" as="geometry">
                        <mxRectangle width="40" height="45" as="alternateBounds"/>
                    </mxGeometry>
                </mxCell>
                <mxCell id="oJyMjNjuvVXajGpNYD3P-0" value="" style="shape=table;startSize=0;container=1;collapsible=0;childLayout=tableLayout;" vertex="1" parent="eEykTlpvzD9INDH0BhUj-1">
                    <mxGeometry x="40" y="630" width="180" height="280" as="geometry"/>
                </mxCell>
                <mxCell id="oJyMjNjuvVXajGpNYD3P-1" value="" style="shape=partialRectangle;collapsible=0;dropTarget=0;pointerEvents=0;fillColor=none;top=0;left=0;bottom=0;right=0;points=[[0,0.5],[1,0.5]];portConstraint=eastwest;" vertex="1" parent="oJyMjNjuvVXajGpNYD3P-0">
                    <mxGeometry width="180" height="40" as="geometry"/>
                </mxCell>
                <mxCell id="oJyMjNjuvVXajGpNYD3P-2" value="回路名" style="shape=partialRectangle;html=1;whiteSpace=wrap;connectable=0;overflow=hidden;fillColor=none;top=0;left=0;bottom=0;right=0;pointerEvents=1;" vertex="1" parent="oJyMjNjuvVXajGpNYD3P-1">
                    <mxGeometry width="60" height="40" as="geometry">
                        <mxRectangle width="60" height="40" as="alternateBounds"/>
                    </mxGeometry>
                </mxCell>
                <mxCell id="oJyMjNjuvVXajGpNYD3P-3" value="n(サイズ)" style="shape=partialRectangle;html=1;whiteSpace=wrap;connectable=0;overflow=hidden;fillColor=none;top=0;left=0;bottom=0;right=0;pointerEvents=1;" vertex="1" parent="oJyMjNjuvVXajGpNYD3P-1">
                    <mxGeometry x="60" width="60" height="40" as="geometry">
                        <mxRectangle width="60" height="40" as="alternateBounds"/>
                    </mxGeometry>
                </mxCell>
                <mxCell id="oJyMjNjuvVXajGpNYD3P-4" value="k(bit数)" style="shape=partialRectangle;html=1;whiteSpace=wrap;connectable=0;overflow=hidden;fillColor=none;top=0;left=0;bottom=0;right=0;pointerEvents=1;" vertex="1" parent="oJyMjNjuvVXajGpNYD3P-1">
                    <mxGeometry x="120" width="60" height="40" as="geometry">
                        <mxRectangle width="60" height="40" as="alternateBounds"/>
                    </mxGeometry>
                </mxCell>
                <mxCell id="oJyMjNjuvVXajGpNYD3P-5" value="" style="shape=partialRectangle;collapsible=0;dropTarget=0;pointerEvents=0;fillColor=none;top=0;left=0;bottom=0;right=0;points=[[0,0.5],[1,0.5]];portConstraint=eastwest;" vertex="1" parent="oJyMjNjuvVXajGpNYD3P-0">
                    <mxGeometry y="40" width="180" height="40" as="geometry"/>
                </mxCell>
                <mxCell id="oJyMjNjuvVXajGpNYD3P-6" value="RAM8" style="shape=partialRectangle;html=1;whiteSpace=wrap;connectable=0;overflow=hidden;fillColor=none;top=0;left=0;bottom=0;right=0;pointerEvents=1;" vertex="1" parent="oJyMjNjuvVXajGpNYD3P-5">
                    <mxGeometry width="60" height="40" as="geometry">
                        <mxRectangle width="60" height="40" as="alternateBounds"/>
                    </mxGeometry>
                </mxCell>
                <mxCell id="oJyMjNjuvVXajGpNYD3P-7" value="8" style="shape=partialRectangle;html=1;whiteSpace=wrap;connectable=0;overflow=hidden;fillColor=none;top=0;left=0;bottom=0;right=0;pointerEvents=1;" vertex="1" parent="oJyMjNjuvVXajGpNYD3P-5">
                    <mxGeometry x="60" width="60" height="40" as="geometry">
                        <mxRectangle width="60" height="40" as="alternateBounds"/>
                    </mxGeometry>
                </mxCell>
                <mxCell id="oJyMjNjuvVXajGpNYD3P-8" value="3" style="shape=partialRectangle;html=1;whiteSpace=wrap;connectable=0;overflow=hidden;fillColor=none;top=0;left=0;bottom=0;right=0;pointerEvents=1;" vertex="1" parent="oJyMjNjuvVXajGpNYD3P-5">
                    <mxGeometry x="120" width="60" height="40" as="geometry">
                        <mxRectangle width="60" height="40" as="alternateBounds"/>
                    </mxGeometry>
                </mxCell>
                <mxCell id="oJyMjNjuvVXajGpNYD3P-9" value="" style="shape=partialRectangle;collapsible=0;dropTarget=0;pointerEvents=0;fillColor=none;top=0;left=0;bottom=0;right=0;points=[[0,0.5],[1,0.5]];portConstraint=eastwest;" vertex="1" parent="oJyMjNjuvVXajGpNYD3P-0">
                    <mxGeometry y="80" width="180" height="40" as="geometry"/>
                </mxCell>
                <mxCell id="oJyMjNjuvVXajGpNYD3P-10" value="RAM64" style="shape=partialRectangle;html=1;whiteSpace=wrap;connectable=0;overflow=hidden;fillColor=none;top=0;left=0;bottom=0;right=0;pointerEvents=1;" vertex="1" parent="oJyMjNjuvVXajGpNYD3P-9">
                    <mxGeometry width="60" height="40" as="geometry">
                        <mxRectangle width="60" height="40" as="alternateBounds"/>
                    </mxGeometry>
                </mxCell>
                <mxCell id="oJyMjNjuvVXajGpNYD3P-11" value="64" style="shape=partialRectangle;html=1;whiteSpace=wrap;connectable=0;overflow=hidden;fillColor=none;top=0;left=0;bottom=0;right=0;pointerEvents=1;" vertex="1" parent="oJyMjNjuvVXajGpNYD3P-9">
                    <mxGeometry x="60" width="60" height="40" as="geometry">
                        <mxRectangle width="60" height="40" as="alternateBounds"/>
                    </mxGeometry>
                </mxCell>
                <mxCell id="oJyMjNjuvVXajGpNYD3P-12" value="6" style="shape=partialRectangle;html=1;whiteSpace=wrap;connectable=0;overflow=hidden;fillColor=none;top=0;left=0;bottom=0;right=0;pointerEvents=1;" vertex="1" parent="oJyMjNjuvVXajGpNYD3P-9">
                    <mxGeometry x="120" width="60" height="40" as="geometry">
                        <mxRectangle width="60" height="40" as="alternateBounds"/>
                    </mxGeometry>
                </mxCell>
                <mxCell id="oJyMjNjuvVXajGpNYD3P-13" value="" style="shape=partialRectangle;collapsible=0;dropTarget=0;pointerEvents=0;fillColor=none;top=0;left=0;bottom=0;right=0;points=[[0,0.5],[1,0.5]];portConstraint=eastwest;" vertex="1" parent="oJyMjNjuvVXajGpNYD3P-0">
                    <mxGeometry y="120" width="180" height="40" as="geometry"/>
                </mxCell>
                <mxCell id="oJyMjNjuvVXajGpNYD3P-14" value="RAM512" style="shape=partialRectangle;html=1;whiteSpace=wrap;connectable=0;overflow=hidden;fillColor=none;top=0;left=0;bottom=0;right=0;pointerEvents=1;" vertex="1" parent="oJyMjNjuvVXajGpNYD3P-13">
                    <mxGeometry width="60" height="40" as="geometry">
                        <mxRectangle width="60" height="40" as="alternateBounds"/>
                    </mxGeometry>
                </mxCell>
                <mxCell id="oJyMjNjuvVXajGpNYD3P-15" value="512" style="shape=partialRectangle;html=1;whiteSpace=wrap;connectable=0;overflow=hidden;fillColor=none;top=0;left=0;bottom=0;right=0;pointerEvents=1;" vertex="1" parent="oJyMjNjuvVXajGpNYD3P-13">
                    <mxGeometry x="60" width="60" height="40" as="geometry">
                        <mxRectangle width="60" height="40" as="alternateBounds"/>
                    </mxGeometry>
                </mxCell>
                <mxCell id="oJyMjNjuvVXajGpNYD3P-16" value="9" style="shape=partialRectangle;html=1;whiteSpace=wrap;connectable=0;overflow=hidden;fillColor=none;top=0;left=0;bottom=0;right=0;pointerEvents=1;" vertex="1" parent="oJyMjNjuvVXajGpNYD3P-13">
                    <mxGeometry x="120" width="60" height="40" as="geometry">
                        <mxRectangle width="60" height="40" as="alternateBounds"/>
                    </mxGeometry>
                </mxCell>
                <mxCell id="oJyMjNjuvVXajGpNYD3P-17" value="" style="shape=partialRectangle;collapsible=0;dropTarget=0;pointerEvents=0;fillColor=none;top=0;left=0;bottom=0;right=0;points=[[0,0.5],[1,0.5]];portConstraint=eastwest;" vertex="1" parent="oJyMjNjuvVXajGpNYD3P-0">
                    <mxGeometry y="160" width="180" height="40" as="geometry"/>
                </mxCell>
                <mxCell id="oJyMjNjuvVXajGpNYD3P-18" value="RAM4K" style="shape=partialRectangle;html=1;whiteSpace=wrap;connectable=0;overflow=hidden;fillColor=none;top=0;left=0;bottom=0;right=0;pointerEvents=1;" vertex="1" parent="oJyMjNjuvVXajGpNYD3P-17">
                    <mxGeometry width="60" height="40" as="geometry">
                        <mxRectangle width="60" height="40" as="alternateBounds"/>
                    </mxGeometry>
                </mxCell>
                <mxCell id="oJyMjNjuvVXajGpNYD3P-19" value="4096" style="shape=partialRectangle;html=1;whiteSpace=wrap;connectable=0;overflow=hidden;fillColor=none;top=0;left=0;bottom=0;right=0;pointerEvents=1;" vertex="1" parent="oJyMjNjuvVXajGpNYD3P-17">
                    <mxGeometry x="60" width="60" height="40" as="geometry">
                        <mxRectangle width="60" height="40" as="alternateBounds"/>
                    </mxGeometry>
                </mxCell>
                <mxCell id="oJyMjNjuvVXajGpNYD3P-20" value="12" style="shape=partialRectangle;html=1;whiteSpace=wrap;connectable=0;overflow=hidden;fillColor=none;top=0;left=0;bottom=0;right=0;pointerEvents=1;" vertex="1" parent="oJyMjNjuvVXajGpNYD3P-17">
                    <mxGeometry x="120" width="60" height="40" as="geometry">
                        <mxRectangle width="60" height="40" as="alternateBounds"/>
                    </mxGeometry>
                </mxCell>
                <mxCell id="oJyMjNjuvVXajGpNYD3P-21" value="" style="shape=partialRectangle;collapsible=0;dropTarget=0;pointerEvents=0;fillColor=none;top=0;left=0;bottom=0;right=0;points=[[0,0.5],[1,0.5]];portConstraint=eastwest;" vertex="1" parent="oJyMjNjuvVXajGpNYD3P-0">
                    <mxGeometry y="200" width="180" height="40" as="geometry"/>
                </mxCell>
                <mxCell id="oJyMjNjuvVXajGpNYD3P-22" value="RAM16K" style="shape=partialRectangle;html=1;whiteSpace=wrap;connectable=0;overflow=hidden;fillColor=none;top=0;left=0;bottom=0;right=0;pointerEvents=1;" vertex="1" parent="oJyMjNjuvVXajGpNYD3P-21">
                    <mxGeometry width="60" height="40" as="geometry">
                        <mxRectangle width="60" height="40" as="alternateBounds"/>
                    </mxGeometry>
                </mxCell>
                <mxCell id="oJyMjNjuvVXajGpNYD3P-23" value="16384" style="shape=partialRectangle;html=1;whiteSpace=wrap;connectable=0;overflow=hidden;fillColor=none;top=0;left=0;bottom=0;right=0;pointerEvents=1;" vertex="1" parent="oJyMjNjuvVXajGpNYD3P-21">
                    <mxGeometry x="60" width="60" height="40" as="geometry">
                        <mxRectangle width="60" height="40" as="alternateBounds"/>
                    </mxGeometry>
                </mxCell>
                <mxCell id="oJyMjNjuvVXajGpNYD3P-24" value="14" style="shape=partialRectangle;html=1;whiteSpace=wrap;connectable=0;overflow=hidden;fillColor=none;top=0;left=0;bottom=0;right=0;pointerEvents=1;" vertex="1" parent="oJyMjNjuvVXajGpNYD3P-21">
                    <mxGeometry x="120" width="60" height="40" as="geometry">
                        <mxRectangle width="60" height="40" as="alternateBounds"/>
                    </mxGeometry>
                </mxCell>
                <mxCell id="oJyMjNjuvVXajGpNYD3P-25" value="" style="shape=partialRectangle;collapsible=0;dropTarget=0;pointerEvents=0;fillColor=none;top=0;left=0;bottom=0;right=0;points=[[0,0.5],[1,0.5]];portConstraint=eastwest;" vertex="1" parent="oJyMjNjuvVXajGpNYD3P-0">
                    <mxGeometry y="240" width="180" height="40" as="geometry"/>
                </mxCell>
                <mxCell id="oJyMjNjuvVXajGpNYD3P-26" value="RAM32K" style="shape=partialRectangle;html=1;whiteSpace=wrap;connectable=0;overflow=hidden;fillColor=none;top=0;left=0;bottom=0;right=0;pointerEvents=1;" vertex="1" parent="oJyMjNjuvVXajGpNYD3P-25">
                    <mxGeometry width="60" height="40" as="geometry">
                        <mxRectangle width="60" height="40" as="alternateBounds"/>
                    </mxGeometry>
                </mxCell>
                <mxCell id="oJyMjNjuvVXajGpNYD3P-27" value="32768" style="shape=partialRectangle;html=1;whiteSpace=wrap;connectable=0;overflow=hidden;fillColor=none;top=0;left=0;bottom=0;right=0;pointerEvents=1;" vertex="1" parent="oJyMjNjuvVXajGpNYD3P-25">
                    <mxGeometry x="60" width="60" height="40" as="geometry">
                        <mxRectangle width="60" height="40" as="alternateBounds"/>
                    </mxGeometry>
                </mxCell>
                <mxCell id="oJyMjNjuvVXajGpNYD3P-28" value="15" style="shape=partialRectangle;html=1;whiteSpace=wrap;connectable=0;overflow=hidden;fillColor=none;top=0;left=0;bottom=0;right=0;pointerEvents=1;" vertex="1" parent="oJyMjNjuvVXajGpNYD3P-25">
                    <mxGeometry x="120" width="60" height="40" as="geometry">
                        <mxRectangle width="60" height="40" as="alternateBounds"/>
                    </mxGeometry>
                </mxCell>
            </root>
        </mxGraphModel>
    </diagram>
    <diagram id="wWMMpRzTkd9IuoS93vjL" name="RAM512">
        <mxGraphModel dx="635" dy="752" grid="1" gridSize="10" guides="1" tooltips="1" connect="1" arrows="1" fold="1" page="1" pageScale="1" pageWidth="827" pageHeight="1169" background="#ffffff" math="0" shadow="0">
            <root>
                <mxCell id="ywaU6fKvNBI-MjicrddY-0"/>
                <mxCell id="ywaU6fKvNBI-MjicrddY-1" parent="ywaU6fKvNBI-MjicrddY-0"/>
                <mxCell id="dbCK5v_MV-oxzSU-5T5L-0" style="edgeStyle=none;html=1;entryX=0;entryY=0.25;entryDx=0;entryDy=0;strokeColor=#000000;" parent="ywaU6fKvNBI-MjicrddY-1" source="dbCK5v_MV-oxzSU-5T5L-8" edge="1">
                    <mxGeometry relative="1" as="geometry">
                        <mxPoint x="280" y="60" as="targetPoint"/>
                    </mxGeometry>
                </mxCell>
                <mxCell id="dbCK5v_MV-oxzSU-5T5L-1" style="edgeStyle=none;html=1;entryX=0;entryY=0.5;entryDx=0;entryDy=0;strokeColor=#000000;" parent="ywaU6fKvNBI-MjicrddY-1" source="dbCK5v_MV-oxzSU-5T5L-8" target="dbCK5v_MV-oxzSU-5T5L-11" edge="1">
                    <mxGeometry relative="1" as="geometry"/>
                </mxCell>
                <mxCell id="dbCK5v_MV-oxzSU-5T5L-2" style="edgeStyle=none;html=1;entryX=0;entryY=0.5;entryDx=0;entryDy=0;strokeColor=#000000;" parent="ywaU6fKvNBI-MjicrddY-1" source="dbCK5v_MV-oxzSU-5T5L-8" target="dbCK5v_MV-oxzSU-5T5L-13" edge="1">
                    <mxGeometry relative="1" as="geometry"/>
                </mxCell>
                <mxCell id="dbCK5v_MV-oxzSU-5T5L-3" style="edgeStyle=none;html=1;entryX=0;entryY=0.5;entryDx=0;entryDy=0;strokeColor=#000000;" parent="ywaU6fKvNBI-MjicrddY-1" source="dbCK5v_MV-oxzSU-5T5L-8" target="dbCK5v_MV-oxzSU-5T5L-15" edge="1">
                    <mxGeometry relative="1" as="geometry"/>
                </mxCell>
                <mxCell id="dbCK5v_MV-oxzSU-5T5L-4" style="edgeStyle=none;html=1;entryX=0;entryY=0.5;entryDx=0;entryDy=0;strokeColor=#000000;" parent="ywaU6fKvNBI-MjicrddY-1" source="dbCK5v_MV-oxzSU-5T5L-8" target="dbCK5v_MV-oxzSU-5T5L-17" edge="1">
                    <mxGeometry relative="1" as="geometry"/>
                </mxCell>
                <mxCell id="dbCK5v_MV-oxzSU-5T5L-5" style="edgeStyle=none;html=1;entryX=0;entryY=0.5;entryDx=0;entryDy=0;strokeColor=#000000;" parent="ywaU6fKvNBI-MjicrddY-1" source="dbCK5v_MV-oxzSU-5T5L-8" target="dbCK5v_MV-oxzSU-5T5L-19" edge="1">
                    <mxGeometry relative="1" as="geometry"/>
                </mxCell>
                <mxCell id="dbCK5v_MV-oxzSU-5T5L-6" style="edgeStyle=none;html=1;entryX=0;entryY=0.5;entryDx=0;entryDy=0;strokeColor=#000000;" parent="ywaU6fKvNBI-MjicrddY-1" source="dbCK5v_MV-oxzSU-5T5L-8" target="dbCK5v_MV-oxzSU-5T5L-21" edge="1">
                    <mxGeometry relative="1" as="geometry"/>
                </mxCell>
                <mxCell id="dbCK5v_MV-oxzSU-5T5L-7" style="edgeStyle=none;html=1;entryX=0;entryY=0.5;entryDx=0;entryDy=0;strokeColor=#000000;" parent="ywaU6fKvNBI-MjicrddY-1" source="dbCK5v_MV-oxzSU-5T5L-8" target="dbCK5v_MV-oxzSU-5T5L-23" edge="1">
                    <mxGeometry relative="1" as="geometry"/>
                </mxCell>
                <mxCell id="dbCK5v_MV-oxzSU-5T5L-8" value="Demux&lt;br&gt;8Way" style="shadow=0;dashed=0;align=center;html=1;strokeWidth=1;shape=mxgraph.electrical.abstract.mux2;operation=demux;" parent="ywaU6fKvNBI-MjicrddY-1" vertex="1">
                    <mxGeometry x="150" y="190" width="80" height="120" as="geometry"/>
                </mxCell>
                <mxCell id="dbCK5v_MV-oxzSU-5T5L-9" style="edgeStyle=none;html=1;entryX=0.116;entryY=0.26;entryDx=0;entryDy=0;entryPerimeter=0;strokeColor=#000000;exitX=1;exitY=0.5;exitDx=0;exitDy=0;" parent="ywaU6fKvNBI-MjicrddY-1" target="dbCK5v_MV-oxzSU-5T5L-26" edge="1">
                    <mxGeometry relative="1" as="geometry">
                        <mxPoint x="360" y="70" as="sourcePoint"/>
                    </mxGeometry>
                </mxCell>
                <mxCell id="dbCK5v_MV-oxzSU-5T5L-10" style="edgeStyle=none;html=1;entryX=0;entryY=0.21666666666666667;entryDx=0;entryDy=3;entryPerimeter=0;strokeColor=#000000;exitX=1;exitY=0.5;exitDx=0;exitDy=0;" parent="ywaU6fKvNBI-MjicrddY-1" source="dbCK5v_MV-oxzSU-5T5L-11" target="dbCK5v_MV-oxzSU-5T5L-26" edge="1">
                    <mxGeometry relative="1" as="geometry"/>
                </mxCell>
                <mxCell id="dbCK5v_MV-oxzSU-5T5L-11" value="RAM64" style="rounded=0;whiteSpace=wrap;html=1;" parent="ywaU6fKvNBI-MjicrddY-1" vertex="1">
                    <mxGeometry x="280" y="100" width="80" height="40" as="geometry"/>
                </mxCell>
                <mxCell id="dbCK5v_MV-oxzSU-5T5L-12" style="edgeStyle=none;html=1;entryX=0;entryY=0.21666666666666667;entryDx=0;entryDy=3;entryPerimeter=0;strokeColor=#000000;exitX=1;exitY=0.5;exitDx=0;exitDy=0;" parent="ywaU6fKvNBI-MjicrddY-1" source="dbCK5v_MV-oxzSU-5T5L-13" target="dbCK5v_MV-oxzSU-5T5L-26" edge="1">
                    <mxGeometry relative="1" as="geometry"/>
                </mxCell>
                <mxCell id="dbCK5v_MV-oxzSU-5T5L-13" value="RAM64" style="rounded=0;whiteSpace=wrap;html=1;" parent="ywaU6fKvNBI-MjicrddY-1" vertex="1">
                    <mxGeometry x="280" y="150" width="80" height="40" as="geometry"/>
                </mxCell>
                <mxCell id="dbCK5v_MV-oxzSU-5T5L-14" style="edgeStyle=none;html=1;entryX=0.1;entryY=0.344;entryDx=0;entryDy=0;entryPerimeter=0;strokeColor=#000000;" parent="ywaU6fKvNBI-MjicrddY-1" source="dbCK5v_MV-oxzSU-5T5L-15" target="dbCK5v_MV-oxzSU-5T5L-26" edge="1">
                    <mxGeometry relative="1" as="geometry"/>
                </mxCell>
                <mxCell id="dbCK5v_MV-oxzSU-5T5L-15" value="RAM64" style="rounded=0;whiteSpace=wrap;html=1;" parent="ywaU6fKvNBI-MjicrddY-1" vertex="1">
                    <mxGeometry x="280" y="200" width="80" height="40" as="geometry"/>
                </mxCell>
                <mxCell id="dbCK5v_MV-oxzSU-5T5L-16" style="edgeStyle=none;html=1;entryX=0.053;entryY=0.5;entryDx=0;entryDy=0;entryPerimeter=0;strokeColor=#000000;" parent="ywaU6fKvNBI-MjicrddY-1" source="dbCK5v_MV-oxzSU-5T5L-17" target="dbCK5v_MV-oxzSU-5T5L-26" edge="1">
                    <mxGeometry relative="1" as="geometry"/>
                </mxCell>
                <mxCell id="dbCK5v_MV-oxzSU-5T5L-17" value="RAM64" style="rounded=0;whiteSpace=wrap;html=1;" parent="ywaU6fKvNBI-MjicrddY-1" vertex="1">
                    <mxGeometry x="280" y="250" width="80" height="40" as="geometry"/>
                </mxCell>
                <mxCell id="dbCK5v_MV-oxzSU-5T5L-18" style="edgeStyle=none;html=1;entryX=0;entryY=0.65;entryDx=0;entryDy=3;entryPerimeter=0;strokeColor=#000000;exitX=1;exitY=0.5;exitDx=0;exitDy=0;" parent="ywaU6fKvNBI-MjicrddY-1" source="dbCK5v_MV-oxzSU-5T5L-19" target="dbCK5v_MV-oxzSU-5T5L-26" edge="1">
                    <mxGeometry relative="1" as="geometry"/>
                </mxCell>
                <mxCell id="dbCK5v_MV-oxzSU-5T5L-19" value="RAM64" style="rounded=0;whiteSpace=wrap;html=1;" parent="ywaU6fKvNBI-MjicrddY-1" vertex="1">
                    <mxGeometry x="280" y="300" width="80" height="40" as="geometry"/>
                </mxCell>
                <mxCell id="dbCK5v_MV-oxzSU-5T5L-20" style="edgeStyle=none;html=1;entryX=0;entryY=0.65;entryDx=0;entryDy=3;entryPerimeter=0;strokeColor=#000000;exitX=1;exitY=0.5;exitDx=0;exitDy=0;" parent="ywaU6fKvNBI-MjicrddY-1" source="dbCK5v_MV-oxzSU-5T5L-21" target="dbCK5v_MV-oxzSU-5T5L-26" edge="1">
                    <mxGeometry relative="1" as="geometry"/>
                </mxCell>
                <mxCell id="dbCK5v_MV-oxzSU-5T5L-21" value="RAM64" style="rounded=0;whiteSpace=wrap;html=1;" parent="ywaU6fKvNBI-MjicrddY-1" vertex="1">
                    <mxGeometry x="280" y="350" width="80" height="40" as="geometry"/>
                </mxCell>
                <mxCell id="dbCK5v_MV-oxzSU-5T5L-22" style="edgeStyle=none;html=1;entryX=0.131;entryY=0.677;entryDx=0;entryDy=0;entryPerimeter=0;strokeColor=#000000;exitX=1;exitY=0.5;exitDx=0;exitDy=0;" parent="ywaU6fKvNBI-MjicrddY-1" source="dbCK5v_MV-oxzSU-5T5L-23" target="dbCK5v_MV-oxzSU-5T5L-26" edge="1">
                    <mxGeometry relative="1" as="geometry"/>
                </mxCell>
                <mxCell id="dbCK5v_MV-oxzSU-5T5L-23" value="RAM64" style="rounded=0;whiteSpace=wrap;html=1;" parent="ywaU6fKvNBI-MjicrddY-1" vertex="1">
                    <mxGeometry x="280" y="400" width="80" height="40" as="geometry"/>
                </mxCell>
                <mxCell id="dbCK5v_MV-oxzSU-5T5L-24" style="edgeStyle=none;html=1;strokeColor=#000000;" parent="ywaU6fKvNBI-MjicrddY-1" source="dbCK5v_MV-oxzSU-5T5L-26" edge="1">
                    <mxGeometry relative="1" as="geometry">
                        <mxPoint x="561.5384615384614" y="240" as="targetPoint"/>
                    </mxGeometry>
                </mxCell>
                <mxCell id="dbCK5v_MV-oxzSU-5T5L-25" value="out[16]" style="edgeLabel;html=1;align=center;verticalAlign=middle;resizable=0;points=[];" parent="dbCK5v_MV-oxzSU-5T5L-24" vertex="1" connectable="0">
                    <mxGeometry x="-0.3212" relative="1" as="geometry">
                        <mxPoint x="3" as="offset"/>
                    </mxGeometry>
                </mxCell>
                <mxCell id="dbCK5v_MV-oxzSU-5T5L-26" value="Mux&lt;br&gt;8Way16" style="shadow=0;dashed=0;align=center;html=1;strokeWidth=1;shape=mxgraph.electrical.abstract.mux2;" parent="ywaU6fKvNBI-MjicrddY-1" vertex="1">
                    <mxGeometry x="414" y="180" width="80" height="120" as="geometry"/>
                </mxCell>
                <mxCell id="dbCK5v_MV-oxzSU-5T5L-27" value="" style="endArrow=classic;html=1;strokeColor=#000000;" parent="ywaU6fKvNBI-MjicrddY-1" edge="1">
                    <mxGeometry width="50" height="50" relative="1" as="geometry">
                        <mxPoint x="40" y="215" as="sourcePoint"/>
                        <mxPoint x="140" y="215" as="targetPoint"/>
                        <Array as="points">
                            <mxPoint x="140" y="215"/>
                        </Array>
                    </mxGeometry>
                </mxCell>
                <mxCell id="dbCK5v_MV-oxzSU-5T5L-28" value="in[16]" style="edgeLabel;html=1;align=center;verticalAlign=middle;resizable=0;points=[];" parent="dbCK5v_MV-oxzSU-5T5L-27" vertex="1" connectable="0">
                    <mxGeometry x="-0.2154" y="3" relative="1" as="geometry">
                        <mxPoint as="offset"/>
                    </mxGeometry>
                </mxCell>
                <mxCell id="dbCK5v_MV-oxzSU-5T5L-29" value="" style="endArrow=classic;html=1;strokeColor=#000000;" parent="ywaU6fKvNBI-MjicrddY-1" edge="1">
                    <mxGeometry width="50" height="50" relative="1" as="geometry">
                        <mxPoint x="40" y="249.23000000000002" as="sourcePoint"/>
                        <mxPoint x="140" y="249.23000000000002" as="targetPoint"/>
                        <Array as="points">
                            <mxPoint x="140" y="249.23"/>
                        </Array>
                    </mxGeometry>
                </mxCell>
                <mxCell id="dbCK5v_MV-oxzSU-5T5L-30" value="load" style="edgeLabel;html=1;align=center;verticalAlign=middle;resizable=0;points=[];" parent="dbCK5v_MV-oxzSU-5T5L-29" vertex="1" connectable="0">
                    <mxGeometry x="-0.2154" y="3" relative="1" as="geometry">
                        <mxPoint as="offset"/>
                    </mxGeometry>
                </mxCell>
                <mxCell id="dbCK5v_MV-oxzSU-5T5L-31" value="" style="endArrow=classic;html=1;strokeColor=#000000;" parent="ywaU6fKvNBI-MjicrddY-1" edge="1">
                    <mxGeometry width="50" height="50" relative="1" as="geometry">
                        <mxPoint x="40" y="280" as="sourcePoint"/>
                        <mxPoint x="140" y="280" as="targetPoint"/>
                        <Array as="points">
                            <mxPoint x="140" y="280"/>
                        </Array>
                    </mxGeometry>
                </mxCell>
                <mxCell id="dbCK5v_MV-oxzSU-5T5L-32" value="adress[9]" style="edgeLabel;html=1;align=center;verticalAlign=middle;resizable=0;points=[];" parent="dbCK5v_MV-oxzSU-5T5L-31" vertex="1" connectable="0">
                    <mxGeometry x="-0.2154" y="3" relative="1" as="geometry">
                        <mxPoint as="offset"/>
                    </mxGeometry>
                </mxCell>
                <mxCell id="dbCK5v_MV-oxzSU-5T5L-33" value="adressビットの流れ" style="text;html=1;align=center;verticalAlign=middle;resizable=0;points=[];autosize=1;strokeColor=none;fillColor=none;fontColor=#000000;" parent="ywaU6fKvNBI-MjicrddY-1" vertex="1">
                    <mxGeometry x="40" y="470" width="120" height="20" as="geometry"/>
                </mxCell>
                <mxCell id="dbCK5v_MV-oxzSU-5T5L-34" value="" style="shape=table;startSize=0;container=1;collapsible=0;childLayout=tableLayout;fontColor=#FFFFFF;" parent="ywaU6fKvNBI-MjicrddY-1" vertex="1">
                    <mxGeometry x="40" y="500" width="640" height="90" as="geometry"/>
                </mxCell>
                <mxCell id="dbCK5v_MV-oxzSU-5T5L-35" value="" style="shape=partialRectangle;collapsible=0;dropTarget=0;pointerEvents=0;fillColor=none;top=0;left=0;bottom=0;right=0;points=[[0,0.5],[1,0.5]];portConstraint=eastwest;fontColor=#000000;" parent="dbCK5v_MV-oxzSU-5T5L-34" vertex="1">
                    <mxGeometry width="640" height="45" as="geometry"/>
                </mxCell>
                <mxCell id="dbCK5v_MV-oxzSU-5T5L-36" value="15" style="shape=partialRectangle;html=1;whiteSpace=wrap;connectable=0;overflow=hidden;fillColor=none;top=0;left=0;bottom=0;right=0;pointerEvents=1;fontColor=#FFFFFF;" parent="dbCK5v_MV-oxzSU-5T5L-35" vertex="1">
                    <mxGeometry width="40" height="45" as="geometry">
                        <mxRectangle width="40" height="45" as="alternateBounds"/>
                    </mxGeometry>
                </mxCell>
                <mxCell id="dbCK5v_MV-oxzSU-5T5L-37" value="14" style="shape=partialRectangle;html=1;whiteSpace=wrap;connectable=0;overflow=hidden;fillColor=none;top=0;left=0;bottom=0;right=0;pointerEvents=1;fontColor=#FFFFFF;" parent="dbCK5v_MV-oxzSU-5T5L-35" vertex="1">
                    <mxGeometry x="40" width="40" height="45" as="geometry">
                        <mxRectangle width="40" height="45" as="alternateBounds"/>
                    </mxGeometry>
                </mxCell>
                <mxCell id="dbCK5v_MV-oxzSU-5T5L-38" value="13" style="shape=partialRectangle;html=1;whiteSpace=wrap;connectable=0;overflow=hidden;fillColor=none;top=0;left=0;bottom=0;right=0;pointerEvents=1;fontColor=#FFFFFF;" parent="dbCK5v_MV-oxzSU-5T5L-35" vertex="1">
                    <mxGeometry x="80" width="40" height="45" as="geometry">
                        <mxRectangle width="40" height="45" as="alternateBounds"/>
                    </mxGeometry>
                </mxCell>
                <mxCell id="dbCK5v_MV-oxzSU-5T5L-39" value="12" style="shape=partialRectangle;html=1;whiteSpace=wrap;connectable=0;overflow=hidden;fillColor=none;top=0;left=0;bottom=0;right=0;pointerEvents=1;fontColor=#FFFFFF;" parent="dbCK5v_MV-oxzSU-5T5L-35" vertex="1">
                    <mxGeometry x="120" width="40" height="45" as="geometry">
                        <mxRectangle width="40" height="45" as="alternateBounds"/>
                    </mxGeometry>
                </mxCell>
                <mxCell id="dbCK5v_MV-oxzSU-5T5L-40" value="11" style="shape=partialRectangle;html=1;whiteSpace=wrap;connectable=0;overflow=hidden;fillColor=none;top=0;left=0;bottom=0;right=0;pointerEvents=1;fontColor=#FFFFFF;" parent="dbCK5v_MV-oxzSU-5T5L-35" vertex="1">
                    <mxGeometry x="160" width="40" height="45" as="geometry">
                        <mxRectangle width="40" height="45" as="alternateBounds"/>
                    </mxGeometry>
                </mxCell>
                <mxCell id="dbCK5v_MV-oxzSU-5T5L-41" value="10" style="shape=partialRectangle;html=1;whiteSpace=wrap;connectable=0;overflow=hidden;fillColor=none;top=0;left=0;bottom=0;right=0;pointerEvents=1;fontColor=#FFFFFF;" parent="dbCK5v_MV-oxzSU-5T5L-35" vertex="1">
                    <mxGeometry x="200" width="40" height="45" as="geometry">
                        <mxRectangle width="40" height="45" as="alternateBounds"/>
                    </mxGeometry>
                </mxCell>
                <mxCell id="dbCK5v_MV-oxzSU-5T5L-42" value="9" style="shape=partialRectangle;html=1;whiteSpace=wrap;connectable=0;overflow=hidden;fillColor=none;top=0;left=0;bottom=0;right=0;pointerEvents=1;fontColor=#FFFFFF;" parent="dbCK5v_MV-oxzSU-5T5L-35" vertex="1">
                    <mxGeometry x="240" width="40" height="45" as="geometry">
                        <mxRectangle width="40" height="45" as="alternateBounds"/>
                    </mxGeometry>
                </mxCell>
                <mxCell id="dbCK5v_MV-oxzSU-5T5L-43" value="8" style="shape=partialRectangle;html=1;whiteSpace=wrap;connectable=0;overflow=hidden;fillColor=none;top=0;left=0;bottom=0;right=0;pointerEvents=1;fontColor=#FFFFFF;" parent="dbCK5v_MV-oxzSU-5T5L-35" vertex="1">
                    <mxGeometry x="280" width="40" height="45" as="geometry">
                        <mxRectangle width="40" height="45" as="alternateBounds"/>
                    </mxGeometry>
                </mxCell>
                <mxCell id="dbCK5v_MV-oxzSU-5T5L-44" value="7" style="shape=partialRectangle;html=1;whiteSpace=wrap;connectable=0;overflow=hidden;fillColor=none;top=0;left=0;bottom=0;right=0;pointerEvents=1;fontColor=#FFFFFF;" parent="dbCK5v_MV-oxzSU-5T5L-35" vertex="1">
                    <mxGeometry x="320" width="40" height="45" as="geometry">
                        <mxRectangle width="40" height="45" as="alternateBounds"/>
                    </mxGeometry>
                </mxCell>
                <mxCell id="dbCK5v_MV-oxzSU-5T5L-45" value="6" style="shape=partialRectangle;html=1;whiteSpace=wrap;connectable=0;overflow=hidden;fillColor=none;top=0;left=0;bottom=0;right=0;pointerEvents=1;fontColor=#FFFFFF;" parent="dbCK5v_MV-oxzSU-5T5L-35" vertex="1">
                    <mxGeometry x="360" width="40" height="45" as="geometry">
                        <mxRectangle width="40" height="45" as="alternateBounds"/>
                    </mxGeometry>
                </mxCell>
                <mxCell id="dbCK5v_MV-oxzSU-5T5L-46" value="5" style="shape=partialRectangle;html=1;whiteSpace=wrap;connectable=0;overflow=hidden;fillColor=none;top=0;left=0;bottom=0;right=0;pointerEvents=1;fontColor=#FFFFFF;" parent="dbCK5v_MV-oxzSU-5T5L-35" vertex="1">
                    <mxGeometry x="400" width="40" height="45" as="geometry">
                        <mxRectangle width="40" height="45" as="alternateBounds"/>
                    </mxGeometry>
                </mxCell>
                <mxCell id="dbCK5v_MV-oxzSU-5T5L-47" value="4" style="shape=partialRectangle;html=1;whiteSpace=wrap;connectable=0;overflow=hidden;fillColor=none;top=0;left=0;bottom=0;right=0;pointerEvents=1;fontColor=#FFFFFF;" parent="dbCK5v_MV-oxzSU-5T5L-35" vertex="1">
                    <mxGeometry x="440" width="40" height="45" as="geometry">
                        <mxRectangle width="40" height="45" as="alternateBounds"/>
                    </mxGeometry>
                </mxCell>
                <mxCell id="dbCK5v_MV-oxzSU-5T5L-48" value="3" style="shape=partialRectangle;html=1;whiteSpace=wrap;connectable=0;overflow=hidden;fillColor=none;top=0;left=0;bottom=0;right=0;pointerEvents=1;fontColor=#FFFFFF;" parent="dbCK5v_MV-oxzSU-5T5L-35" vertex="1">
                    <mxGeometry x="480" width="40" height="45" as="geometry">
                        <mxRectangle width="40" height="45" as="alternateBounds"/>
                    </mxGeometry>
                </mxCell>
                <mxCell id="dbCK5v_MV-oxzSU-5T5L-49" value="2" style="shape=partialRectangle;html=1;whiteSpace=wrap;connectable=0;overflow=hidden;fillColor=none;top=0;left=0;bottom=0;right=0;pointerEvents=1;fontColor=#FFFFFF;" parent="dbCK5v_MV-oxzSU-5T5L-35" vertex="1">
                    <mxGeometry x="520" width="40" height="45" as="geometry">
                        <mxRectangle width="40" height="45" as="alternateBounds"/>
                    </mxGeometry>
                </mxCell>
                <mxCell id="dbCK5v_MV-oxzSU-5T5L-50" value="1" style="shape=partialRectangle;html=1;whiteSpace=wrap;connectable=0;overflow=hidden;fillColor=none;top=0;left=0;bottom=0;right=0;pointerEvents=1;fontColor=#FFFFFF;" parent="dbCK5v_MV-oxzSU-5T5L-35" vertex="1">
                    <mxGeometry x="560" width="40" height="45" as="geometry">
                        <mxRectangle width="40" height="45" as="alternateBounds"/>
                    </mxGeometry>
                </mxCell>
                <mxCell id="dbCK5v_MV-oxzSU-5T5L-51" value="0" style="shape=partialRectangle;html=1;whiteSpace=wrap;connectable=0;overflow=hidden;fillColor=none;top=0;left=0;bottom=0;right=0;pointerEvents=1;fontColor=#FFFFFF;" parent="dbCK5v_MV-oxzSU-5T5L-35" vertex="1">
                    <mxGeometry x="600" width="40" height="45" as="geometry">
                        <mxRectangle width="40" height="45" as="alternateBounds"/>
                    </mxGeometry>
                </mxCell>
                <mxCell id="dbCK5v_MV-oxzSU-5T5L-52" value="" style="shape=partialRectangle;collapsible=0;dropTarget=0;pointerEvents=0;fillColor=none;top=0;left=0;bottom=0;right=0;points=[[0,0.5],[1,0.5]];portConstraint=eastwest;fontColor=#000000;" parent="dbCK5v_MV-oxzSU-5T5L-34" vertex="1">
                    <mxGeometry y="45" width="640" height="45" as="geometry"/>
                </mxCell>
                <mxCell id="dbCK5v_MV-oxzSU-5T5L-53" value="0" style="shape=partialRectangle;html=1;whiteSpace=wrap;connectable=0;overflow=hidden;fillColor=none;top=0;left=0;bottom=0;right=0;pointerEvents=1;fontColor=#FFFFFF;" parent="dbCK5v_MV-oxzSU-5T5L-52" vertex="1">
                    <mxGeometry width="40" height="45" as="geometry">
                        <mxRectangle width="40" height="45" as="alternateBounds"/>
                    </mxGeometry>
                </mxCell>
                <mxCell id="dbCK5v_MV-oxzSU-5T5L-54" value="0" style="shape=partialRectangle;html=1;whiteSpace=wrap;connectable=0;overflow=hidden;fillColor=none;top=0;left=0;bottom=0;right=0;pointerEvents=1;fontColor=#FFFFFF;" parent="dbCK5v_MV-oxzSU-5T5L-52" vertex="1">
                    <mxGeometry x="40" width="40" height="45" as="geometry">
                        <mxRectangle width="40" height="45" as="alternateBounds"/>
                    </mxGeometry>
                </mxCell>
                <mxCell id="dbCK5v_MV-oxzSU-5T5L-55" value="0" style="shape=partialRectangle;html=1;whiteSpace=wrap;connectable=0;overflow=hidden;fillColor=none;top=0;left=0;bottom=0;right=0;pointerEvents=1;fontColor=#FFFFFF;" parent="dbCK5v_MV-oxzSU-5T5L-52" vertex="1">
                    <mxGeometry x="80" width="40" height="45" as="geometry">
                        <mxRectangle width="40" height="45" as="alternateBounds"/>
                    </mxGeometry>
                </mxCell>
                <mxCell id="dbCK5v_MV-oxzSU-5T5L-56" value="0" style="shape=partialRectangle;html=1;whiteSpace=wrap;connectable=0;overflow=hidden;fillColor=none;top=0;left=0;bottom=0;right=0;pointerEvents=1;fontColor=#FFFFFF;" parent="dbCK5v_MV-oxzSU-5T5L-52" vertex="1">
                    <mxGeometry x="120" width="40" height="45" as="geometry">
                        <mxRectangle width="40" height="45" as="alternateBounds"/>
                    </mxGeometry>
                </mxCell>
                <mxCell id="dbCK5v_MV-oxzSU-5T5L-57" value="0" style="shape=partialRectangle;html=1;whiteSpace=wrap;connectable=0;overflow=hidden;fillColor=none;top=0;left=0;bottom=0;right=0;pointerEvents=1;fontColor=#FFFFFF;" parent="dbCK5v_MV-oxzSU-5T5L-52" vertex="1">
                    <mxGeometry x="160" width="40" height="45" as="geometry">
                        <mxRectangle width="40" height="45" as="alternateBounds"/>
                    </mxGeometry>
                </mxCell>
                <mxCell id="dbCK5v_MV-oxzSU-5T5L-58" value="0" style="shape=partialRectangle;html=1;whiteSpace=wrap;connectable=0;overflow=hidden;fillColor=none;top=0;left=0;bottom=0;right=0;pointerEvents=1;fontColor=#FFFFFF;" parent="dbCK5v_MV-oxzSU-5T5L-52" vertex="1">
                    <mxGeometry x="200" width="40" height="45" as="geometry">
                        <mxRectangle width="40" height="45" as="alternateBounds"/>
                    </mxGeometry>
                </mxCell>
                <mxCell id="dbCK5v_MV-oxzSU-5T5L-59" value="0" style="shape=partialRectangle;html=1;whiteSpace=wrap;connectable=0;overflow=hidden;fillColor=none;top=0;left=0;bottom=0;right=0;pointerEvents=1;fontColor=#FFFFFF;" parent="dbCK5v_MV-oxzSU-5T5L-52" vertex="1">
                    <mxGeometry x="240" width="40" height="45" as="geometry">
                        <mxRectangle width="40" height="45" as="alternateBounds"/>
                    </mxGeometry>
                </mxCell>
                <mxCell id="dbCK5v_MV-oxzSU-5T5L-60" value="" style="shape=partialRectangle;html=1;whiteSpace=wrap;connectable=0;overflow=hidden;fillColor=#a20025;top=0;left=0;bottom=0;right=0;pointerEvents=1;fontColor=#ffffff;strokeColor=#6F0000;" parent="dbCK5v_MV-oxzSU-5T5L-52" vertex="1">
                    <mxGeometry x="280" width="40" height="45" as="geometry">
                        <mxRectangle width="40" height="45" as="alternateBounds"/>
                    </mxGeometry>
                </mxCell>
                <mxCell id="dbCK5v_MV-oxzSU-5T5L-61" value="" style="shape=partialRectangle;html=1;whiteSpace=wrap;connectable=0;overflow=hidden;fillColor=#a20025;top=0;left=0;bottom=0;right=0;pointerEvents=1;fontColor=#ffffff;strokeColor=#6F0000;" parent="dbCK5v_MV-oxzSU-5T5L-52" vertex="1">
                    <mxGeometry x="320" width="40" height="45" as="geometry">
                        <mxRectangle width="40" height="45" as="alternateBounds"/>
                    </mxGeometry>
                </mxCell>
                <mxCell id="dbCK5v_MV-oxzSU-5T5L-62" value="" style="shape=partialRectangle;html=1;whiteSpace=wrap;connectable=0;overflow=hidden;top=0;left=0;bottom=0;right=0;pointerEvents=1;fillColor=#a20025;fontColor=#ffffff;strokeColor=#6F0000;" parent="dbCK5v_MV-oxzSU-5T5L-52" vertex="1">
                    <mxGeometry x="360" width="40" height="45" as="geometry">
                        <mxRectangle width="40" height="45" as="alternateBounds"/>
                    </mxGeometry>
                </mxCell>
                <mxCell id="dbCK5v_MV-oxzSU-5T5L-63" value="" style="shape=partialRectangle;html=1;whiteSpace=wrap;connectable=0;overflow=hidden;fillColor=#1ba1e2;top=0;left=0;bottom=0;right=0;pointerEvents=1;fontColor=#ffffff;strokeColor=#006EAF;" parent="dbCK5v_MV-oxzSU-5T5L-52" vertex="1">
                    <mxGeometry x="400" width="40" height="45" as="geometry">
                        <mxRectangle width="40" height="45" as="alternateBounds"/>
                    </mxGeometry>
                </mxCell>
                <mxCell id="dbCK5v_MV-oxzSU-5T5L-64" value="" style="shape=partialRectangle;html=1;whiteSpace=wrap;connectable=0;overflow=hidden;fillColor=#1ba1e2;top=0;left=0;bottom=0;right=0;pointerEvents=1;fontColor=#ffffff;strokeColor=#006EAF;" parent="dbCK5v_MV-oxzSU-5T5L-52" vertex="1">
                    <mxGeometry x="440" width="40" height="45" as="geometry">
                        <mxRectangle width="40" height="45" as="alternateBounds"/>
                    </mxGeometry>
                </mxCell>
                <mxCell id="dbCK5v_MV-oxzSU-5T5L-65" value="" style="shape=partialRectangle;html=1;whiteSpace=wrap;connectable=0;overflow=hidden;fillColor=#1ba1e2;top=0;left=0;bottom=0;right=0;pointerEvents=1;fontColor=#ffffff;strokeColor=#006EAF;" parent="dbCK5v_MV-oxzSU-5T5L-52" vertex="1">
                    <mxGeometry x="480" width="40" height="45" as="geometry">
                        <mxRectangle width="40" height="45" as="alternateBounds"/>
                    </mxGeometry>
                </mxCell>
                <mxCell id="dbCK5v_MV-oxzSU-5T5L-66" value="" style="shape=partialRectangle;html=1;whiteSpace=wrap;connectable=0;overflow=hidden;fillColor=#1ba1e2;top=0;left=0;bottom=0;right=0;pointerEvents=1;fontColor=#ffffff;strokeColor=#000000;" parent="dbCK5v_MV-oxzSU-5T5L-52" vertex="1">
                    <mxGeometry x="520" width="40" height="45" as="geometry">
                        <mxRectangle width="40" height="45" as="alternateBounds"/>
                    </mxGeometry>
                </mxCell>
                <mxCell id="dbCK5v_MV-oxzSU-5T5L-67" value="" style="shape=partialRectangle;html=1;whiteSpace=wrap;connectable=0;overflow=hidden;fillColor=#1ba1e2;top=0;left=0;bottom=0;right=0;pointerEvents=1;fontColor=#ffffff;strokeColor=#000000;" parent="dbCK5v_MV-oxzSU-5T5L-52" vertex="1">
                    <mxGeometry x="560" width="40" height="45" as="geometry">
                        <mxRectangle width="40" height="45" as="alternateBounds"/>
                    </mxGeometry>
                </mxCell>
                <mxCell id="dbCK5v_MV-oxzSU-5T5L-68" style="shape=partialRectangle;html=1;whiteSpace=wrap;connectable=0;overflow=hidden;fillColor=#1ba1e2;top=0;left=0;bottom=0;right=0;pointerEvents=1;fontColor=#ffffff;strokeColor=#000000;" parent="dbCK5v_MV-oxzSU-5T5L-52" vertex="1">
                    <mxGeometry x="600" width="40" height="45" as="geometry">
                        <mxRectangle width="40" height="45" as="alternateBounds"/>
                    </mxGeometry>
                </mxCell>
                <mxCell id="dbCK5v_MV-oxzSU-5T5L-69" style="edgeStyle=none;html=1;entryX=0.44;entryY=0.963;entryDx=0;entryDy=0;entryPerimeter=0;fontColor=#FFFFFF;strokeColor=#000000;exitX=1;exitY=0.5;exitDx=0;exitDy=0;" parent="ywaU6fKvNBI-MjicrddY-1" source="dbCK5v_MV-oxzSU-5T5L-70" target="dbCK5v_MV-oxzSU-5T5L-52" edge="1">
                    <mxGeometry relative="1" as="geometry"/>
                </mxCell>
                <mxCell id="dbCK5v_MV-oxzSU-5T5L-70" value="使用しない" style="whiteSpace=wrap;html=1;rounded=1;arcSize=50;align=center;verticalAlign=middle;strokeWidth=1;autosize=1;spacing=4;treeFolding=1;treeMoving=1;newEdgeStyle={&quot;edgeStyle&quot;:&quot;entityRelationEdgeStyle&quot;,&quot;startArrow&quot;:&quot;none&quot;,&quot;endArrow&quot;:&quot;none&quot;,&quot;segment&quot;:10,&quot;curved&quot;:1};fontColor=#FFFFFF;" parent="ywaU6fKvNBI-MjicrddY-1" vertex="1">
                    <mxGeometry x="110" y="660" width="100" height="30" as="geometry"/>
                </mxCell>
                <mxCell id="dbCK5v_MV-oxzSU-5T5L-71" value="" style="edgeStyle=entityRelationEdgeStyle;startArrow=none;endArrow=none;segment=10;curved=1;fontColor=#FFFFFF;strokeColor=#000000;exitX=0.005;exitY=1.052;exitDx=0;exitDy=0;exitPerimeter=0;" parent="ywaU6fKvNBI-MjicrddY-1" source="dbCK5v_MV-oxzSU-5T5L-52" target="dbCK5v_MV-oxzSU-5T5L-70" edge="1">
                    <mxGeometry relative="1" as="geometry">
                        <mxPoint x="160" y="680" as="sourcePoint"/>
                    </mxGeometry>
                </mxCell>
                <mxCell id="dbCK5v_MV-oxzSU-5T5L-72" style="edgeStyle=none;html=1;entryX=0.442;entryY=1.022;entryDx=0;entryDy=0;entryPerimeter=0;fontColor=#FFFFFF;strokeColor=#000000;" parent="ywaU6fKvNBI-MjicrddY-1" source="dbCK5v_MV-oxzSU-5T5L-74" target="dbCK5v_MV-oxzSU-5T5L-52" edge="1">
                    <mxGeometry relative="1" as="geometry"/>
                </mxCell>
                <mxCell id="dbCK5v_MV-oxzSU-5T5L-73" style="edgeStyle=none;html=1;entryX=0.623;entryY=1.111;entryDx=0;entryDy=0;entryPerimeter=0;fontColor=#FFFFFF;strokeColor=#000000;" parent="ywaU6fKvNBI-MjicrddY-1" source="dbCK5v_MV-oxzSU-5T5L-74" target="dbCK5v_MV-oxzSU-5T5L-52" edge="1">
                    <mxGeometry relative="1" as="geometry"/>
                </mxCell>
                <mxCell id="dbCK5v_MV-oxzSU-5T5L-74" value="RAM64選び" style="whiteSpace=wrap;html=1;rounded=1;arcSize=50;align=center;verticalAlign=middle;strokeWidth=1;autosize=1;spacing=4;treeFolding=1;treeMoving=1;newEdgeStyle={&quot;edgeStyle&quot;:&quot;entityRelationEdgeStyle&quot;,&quot;startArrow&quot;:&quot;none&quot;,&quot;endArrow&quot;:&quot;none&quot;,&quot;segment&quot;:10,&quot;curved&quot;:1};fontColor=#ffffff;fillColor=#a20025;strokeColor=#6F0000;" parent="ywaU6fKvNBI-MjicrddY-1" vertex="1">
                    <mxGeometry x="320" y="660" width="100" height="30" as="geometry"/>
                </mxCell>
                <mxCell id="dbCK5v_MV-oxzSU-5T5L-75" style="edgeStyle=none;html=1;entryX=0.627;entryY=1.022;entryDx=0;entryDy=0;entryPerimeter=0;fontColor=#FFFFFF;strokeColor=#000000;" parent="ywaU6fKvNBI-MjicrddY-1" source="dbCK5v_MV-oxzSU-5T5L-77" target="dbCK5v_MV-oxzSU-5T5L-52" edge="1">
                    <mxGeometry relative="1" as="geometry"/>
                </mxCell>
                <mxCell id="dbCK5v_MV-oxzSU-5T5L-76" style="edgeStyle=none;html=1;entryX=0.994;entryY=1.052;entryDx=0;entryDy=0;entryPerimeter=0;fontColor=#FFFFFF;strokeColor=#000000;" parent="ywaU6fKvNBI-MjicrddY-1" source="dbCK5v_MV-oxzSU-5T5L-77" target="dbCK5v_MV-oxzSU-5T5L-52" edge="1">
                    <mxGeometry relative="1" as="geometry"/>
                </mxCell>
                <mxCell id="dbCK5v_MV-oxzSU-5T5L-77" value="RAM8内" style="whiteSpace=wrap;html=1;rounded=1;arcSize=50;align=center;verticalAlign=middle;strokeWidth=1;autosize=1;spacing=4;treeFolding=1;treeMoving=1;newEdgeStyle={&quot;edgeStyle&quot;:&quot;entityRelationEdgeStyle&quot;,&quot;startArrow&quot;:&quot;none&quot;,&quot;endArrow&quot;:&quot;none&quot;,&quot;segment&quot;:10,&quot;curved&quot;:1};fontColor=#ffffff;labelBackgroundColor=none;fillColor=#1ba1e2;strokeColor=#006EAF;" parent="ywaU6fKvNBI-MjicrddY-1" vertex="1">
                    <mxGeometry x="494" y="660" width="90" height="30" as="geometry"/>
                </mxCell>
                <mxCell id="dbCK5v_MV-oxzSU-5T5L-78" value="&quot;何桁台&quot;&lt;br&gt;のRAMかみたいなイメージ" style="text;html=1;align=center;verticalAlign=middle;resizable=0;points=[];autosize=1;strokeColor=#6F0000;fillColor=#a20025;fontColor=#ffffff;" parent="ywaU6fKvNBI-MjicrddY-1" vertex="1">
                    <mxGeometry x="290" y="720" width="160" height="30" as="geometry"/>
                </mxCell>
                <mxCell id="dbCK5v_MV-oxzSU-5T5L-79" value="RAM64" style="rounded=0;whiteSpace=wrap;html=1;" parent="ywaU6fKvNBI-MjicrddY-1" vertex="1">
                    <mxGeometry x="280" y="50" width="80" height="40" as="geometry"/>
                </mxCell>
            </root>
        </mxGraphModel>
    </diagram>
    <diagram id="5lE_EGfwKp_EcHOQw0Fp" name="RAM4K">
        <mxGraphModel dx="635" dy="752" grid="1" gridSize="10" guides="1" tooltips="1" connect="1" arrows="1" fold="1" page="1" pageScale="1" pageWidth="827" pageHeight="1169" background="#ffffff" math="0" shadow="0">
            <root>
                <mxCell id="84q6WzrrNXM6b--ruY_1-0"/>
                <mxCell id="84q6WzrrNXM6b--ruY_1-1" parent="84q6WzrrNXM6b--ruY_1-0"/>
                <mxCell id="84q6WzrrNXM6b--ruY_1-2" style="edgeStyle=none;html=1;entryX=0;entryY=0.25;entryDx=0;entryDy=0;strokeColor=#000000;" parent="84q6WzrrNXM6b--ruY_1-1" source="84q6WzrrNXM6b--ruY_1-10" edge="1">
                    <mxGeometry relative="1" as="geometry">
                        <mxPoint x="280" y="60" as="targetPoint"/>
                    </mxGeometry>
                </mxCell>
                <mxCell id="84q6WzrrNXM6b--ruY_1-3" style="edgeStyle=none;html=1;entryX=0;entryY=0.5;entryDx=0;entryDy=0;strokeColor=#000000;" parent="84q6WzrrNXM6b--ruY_1-1" source="84q6WzrrNXM6b--ruY_1-10" target="84q6WzrrNXM6b--ruY_1-13" edge="1">
                    <mxGeometry relative="1" as="geometry"/>
                </mxCell>
                <mxCell id="84q6WzrrNXM6b--ruY_1-4" style="edgeStyle=none;html=1;entryX=0;entryY=0.5;entryDx=0;entryDy=0;strokeColor=#000000;" parent="84q6WzrrNXM6b--ruY_1-1" source="84q6WzrrNXM6b--ruY_1-10" target="84q6WzrrNXM6b--ruY_1-15" edge="1">
                    <mxGeometry relative="1" as="geometry"/>
                </mxCell>
                <mxCell id="84q6WzrrNXM6b--ruY_1-5" style="edgeStyle=none;html=1;entryX=0;entryY=0.5;entryDx=0;entryDy=0;strokeColor=#000000;" parent="84q6WzrrNXM6b--ruY_1-1" source="84q6WzrrNXM6b--ruY_1-10" target="84q6WzrrNXM6b--ruY_1-17" edge="1">
                    <mxGeometry relative="1" as="geometry"/>
                </mxCell>
                <mxCell id="84q6WzrrNXM6b--ruY_1-6" style="edgeStyle=none;html=1;entryX=0;entryY=0.5;entryDx=0;entryDy=0;strokeColor=#000000;" parent="84q6WzrrNXM6b--ruY_1-1" source="84q6WzrrNXM6b--ruY_1-10" target="84q6WzrrNXM6b--ruY_1-19" edge="1">
                    <mxGeometry relative="1" as="geometry"/>
                </mxCell>
                <mxCell id="84q6WzrrNXM6b--ruY_1-7" style="edgeStyle=none;html=1;entryX=0;entryY=0.5;entryDx=0;entryDy=0;strokeColor=#000000;" parent="84q6WzrrNXM6b--ruY_1-1" source="84q6WzrrNXM6b--ruY_1-10" target="84q6WzrrNXM6b--ruY_1-21" edge="1">
                    <mxGeometry relative="1" as="geometry"/>
                </mxCell>
                <mxCell id="84q6WzrrNXM6b--ruY_1-8" style="edgeStyle=none;html=1;entryX=0;entryY=0.5;entryDx=0;entryDy=0;strokeColor=#000000;" parent="84q6WzrrNXM6b--ruY_1-1" source="84q6WzrrNXM6b--ruY_1-10" target="84q6WzrrNXM6b--ruY_1-23" edge="1">
                    <mxGeometry relative="1" as="geometry"/>
                </mxCell>
                <mxCell id="84q6WzrrNXM6b--ruY_1-9" style="edgeStyle=none;html=1;entryX=0;entryY=0.5;entryDx=0;entryDy=0;strokeColor=#000000;" parent="84q6WzrrNXM6b--ruY_1-1" source="84q6WzrrNXM6b--ruY_1-10" target="84q6WzrrNXM6b--ruY_1-25" edge="1">
                    <mxGeometry relative="1" as="geometry"/>
                </mxCell>
                <mxCell id="84q6WzrrNXM6b--ruY_1-10" value="Demux&lt;br&gt;8Way" style="shadow=0;dashed=0;align=center;html=1;strokeWidth=1;shape=mxgraph.electrical.abstract.mux2;operation=demux;" parent="84q6WzrrNXM6b--ruY_1-1" vertex="1">
                    <mxGeometry x="150" y="190" width="80" height="120" as="geometry"/>
                </mxCell>
                <mxCell id="84q6WzrrNXM6b--ruY_1-11" style="edgeStyle=none;html=1;entryX=0.116;entryY=0.26;entryDx=0;entryDy=0;entryPerimeter=0;strokeColor=#000000;exitX=1;exitY=0.5;exitDx=0;exitDy=0;" parent="84q6WzrrNXM6b--ruY_1-1" target="84q6WzrrNXM6b--ruY_1-28" edge="1">
                    <mxGeometry relative="1" as="geometry">
                        <mxPoint x="360" y="70" as="sourcePoint"/>
                    </mxGeometry>
                </mxCell>
                <mxCell id="84q6WzrrNXM6b--ruY_1-12" style="edgeStyle=none;html=1;entryX=0;entryY=0.21666666666666667;entryDx=0;entryDy=3;entryPerimeter=0;strokeColor=#000000;exitX=1;exitY=0.5;exitDx=0;exitDy=0;" parent="84q6WzrrNXM6b--ruY_1-1" source="84q6WzrrNXM6b--ruY_1-13" target="84q6WzrrNXM6b--ruY_1-28" edge="1">
                    <mxGeometry relative="1" as="geometry"/>
                </mxCell>
                <mxCell id="84q6WzrrNXM6b--ruY_1-13" value="RAM512" style="rounded=0;whiteSpace=wrap;html=1;" parent="84q6WzrrNXM6b--ruY_1-1" vertex="1">
                    <mxGeometry x="280" y="100" width="80" height="40" as="geometry"/>
                </mxCell>
                <mxCell id="84q6WzrrNXM6b--ruY_1-14" style="edgeStyle=none;html=1;entryX=0;entryY=0.21666666666666667;entryDx=0;entryDy=3;entryPerimeter=0;strokeColor=#000000;exitX=1;exitY=0.5;exitDx=0;exitDy=0;" parent="84q6WzrrNXM6b--ruY_1-1" source="84q6WzrrNXM6b--ruY_1-15" target="84q6WzrrNXM6b--ruY_1-28" edge="1">
                    <mxGeometry relative="1" as="geometry"/>
                </mxCell>
                <mxCell id="84q6WzrrNXM6b--ruY_1-15" value="RAM512" style="rounded=0;whiteSpace=wrap;html=1;" parent="84q6WzrrNXM6b--ruY_1-1" vertex="1">
                    <mxGeometry x="280" y="150" width="80" height="40" as="geometry"/>
                </mxCell>
                <mxCell id="84q6WzrrNXM6b--ruY_1-16" style="edgeStyle=none;html=1;entryX=0.1;entryY=0.344;entryDx=0;entryDy=0;entryPerimeter=0;strokeColor=#000000;" parent="84q6WzrrNXM6b--ruY_1-1" source="84q6WzrrNXM6b--ruY_1-17" target="84q6WzrrNXM6b--ruY_1-28" edge="1">
                    <mxGeometry relative="1" as="geometry"/>
                </mxCell>
                <mxCell id="84q6WzrrNXM6b--ruY_1-17" value="RAM512" style="rounded=0;whiteSpace=wrap;html=1;" parent="84q6WzrrNXM6b--ruY_1-1" vertex="1">
                    <mxGeometry x="280" y="200" width="80" height="40" as="geometry"/>
                </mxCell>
                <mxCell id="84q6WzrrNXM6b--ruY_1-18" style="edgeStyle=none;html=1;entryX=0.053;entryY=0.5;entryDx=0;entryDy=0;entryPerimeter=0;strokeColor=#000000;" parent="84q6WzrrNXM6b--ruY_1-1" source="84q6WzrrNXM6b--ruY_1-19" target="84q6WzrrNXM6b--ruY_1-28" edge="1">
                    <mxGeometry relative="1" as="geometry"/>
                </mxCell>
                <mxCell id="84q6WzrrNXM6b--ruY_1-19" value="RAM512" style="rounded=0;whiteSpace=wrap;html=1;" parent="84q6WzrrNXM6b--ruY_1-1" vertex="1">
                    <mxGeometry x="280" y="250" width="80" height="40" as="geometry"/>
                </mxCell>
                <mxCell id="84q6WzrrNXM6b--ruY_1-20" style="edgeStyle=none;html=1;entryX=0;entryY=0.65;entryDx=0;entryDy=3;entryPerimeter=0;strokeColor=#000000;exitX=1;exitY=0.5;exitDx=0;exitDy=0;" parent="84q6WzrrNXM6b--ruY_1-1" source="84q6WzrrNXM6b--ruY_1-21" target="84q6WzrrNXM6b--ruY_1-28" edge="1">
                    <mxGeometry relative="1" as="geometry"/>
                </mxCell>
                <mxCell id="84q6WzrrNXM6b--ruY_1-21" value="RAM512" style="rounded=0;whiteSpace=wrap;html=1;" parent="84q6WzrrNXM6b--ruY_1-1" vertex="1">
                    <mxGeometry x="280" y="300" width="80" height="40" as="geometry"/>
                </mxCell>
                <mxCell id="84q6WzrrNXM6b--ruY_1-22" style="edgeStyle=none;html=1;entryX=0;entryY=0.65;entryDx=0;entryDy=3;entryPerimeter=0;strokeColor=#000000;exitX=1;exitY=0.5;exitDx=0;exitDy=0;" parent="84q6WzrrNXM6b--ruY_1-1" source="84q6WzrrNXM6b--ruY_1-23" target="84q6WzrrNXM6b--ruY_1-28" edge="1">
                    <mxGeometry relative="1" as="geometry"/>
                </mxCell>
                <mxCell id="84q6WzrrNXM6b--ruY_1-23" value="RAM512" style="rounded=0;whiteSpace=wrap;html=1;" parent="84q6WzrrNXM6b--ruY_1-1" vertex="1">
                    <mxGeometry x="280" y="350" width="80" height="40" as="geometry"/>
                </mxCell>
                <mxCell id="84q6WzrrNXM6b--ruY_1-24" style="edgeStyle=none;html=1;entryX=0.131;entryY=0.677;entryDx=0;entryDy=0;entryPerimeter=0;strokeColor=#000000;exitX=1;exitY=0.5;exitDx=0;exitDy=0;" parent="84q6WzrrNXM6b--ruY_1-1" source="84q6WzrrNXM6b--ruY_1-25" target="84q6WzrrNXM6b--ruY_1-28" edge="1">
                    <mxGeometry relative="1" as="geometry"/>
                </mxCell>
                <mxCell id="84q6WzrrNXM6b--ruY_1-25" value="RAM512" style="rounded=0;whiteSpace=wrap;html=1;" parent="84q6WzrrNXM6b--ruY_1-1" vertex="1">
                    <mxGeometry x="280" y="400" width="80" height="40" as="geometry"/>
                </mxCell>
                <mxCell id="84q6WzrrNXM6b--ruY_1-26" style="edgeStyle=none;html=1;strokeColor=#000000;" parent="84q6WzrrNXM6b--ruY_1-1" source="84q6WzrrNXM6b--ruY_1-28" edge="1">
                    <mxGeometry relative="1" as="geometry">
                        <mxPoint x="561.5384615384614" y="240" as="targetPoint"/>
                    </mxGeometry>
                </mxCell>
                <mxCell id="84q6WzrrNXM6b--ruY_1-27" value="out[16]" style="edgeLabel;html=1;align=center;verticalAlign=middle;resizable=0;points=[];" parent="84q6WzrrNXM6b--ruY_1-26" vertex="1" connectable="0">
                    <mxGeometry x="-0.3212" relative="1" as="geometry">
                        <mxPoint x="3" as="offset"/>
                    </mxGeometry>
                </mxCell>
                <mxCell id="84q6WzrrNXM6b--ruY_1-28" value="Mux&lt;br&gt;8Way16" style="shadow=0;dashed=0;align=center;html=1;strokeWidth=1;shape=mxgraph.electrical.abstract.mux2;" parent="84q6WzrrNXM6b--ruY_1-1" vertex="1">
                    <mxGeometry x="414" y="180" width="80" height="120" as="geometry"/>
                </mxCell>
                <mxCell id="84q6WzrrNXM6b--ruY_1-29" value="" style="endArrow=classic;html=1;strokeColor=#000000;" parent="84q6WzrrNXM6b--ruY_1-1" edge="1">
                    <mxGeometry width="50" height="50" relative="1" as="geometry">
                        <mxPoint x="40" y="215" as="sourcePoint"/>
                        <mxPoint x="140" y="215" as="targetPoint"/>
                        <Array as="points">
                            <mxPoint x="140" y="215"/>
                        </Array>
                    </mxGeometry>
                </mxCell>
                <mxCell id="84q6WzrrNXM6b--ruY_1-30" value="in[16]" style="edgeLabel;html=1;align=center;verticalAlign=middle;resizable=0;points=[];" parent="84q6WzrrNXM6b--ruY_1-29" vertex="1" connectable="0">
                    <mxGeometry x="-0.2154" y="3" relative="1" as="geometry">
                        <mxPoint as="offset"/>
                    </mxGeometry>
                </mxCell>
                <mxCell id="84q6WzrrNXM6b--ruY_1-31" value="" style="endArrow=classic;html=1;strokeColor=#000000;" parent="84q6WzrrNXM6b--ruY_1-1" edge="1">
                    <mxGeometry width="50" height="50" relative="1" as="geometry">
                        <mxPoint x="40" y="249.23000000000002" as="sourcePoint"/>
                        <mxPoint x="140" y="249.23000000000002" as="targetPoint"/>
                        <Array as="points">
                            <mxPoint x="140" y="249.23"/>
                        </Array>
                    </mxGeometry>
                </mxCell>
                <mxCell id="84q6WzrrNXM6b--ruY_1-32" value="load" style="edgeLabel;html=1;align=center;verticalAlign=middle;resizable=0;points=[];" parent="84q6WzrrNXM6b--ruY_1-31" vertex="1" connectable="0">
                    <mxGeometry x="-0.2154" y="3" relative="1" as="geometry">
                        <mxPoint as="offset"/>
                    </mxGeometry>
                </mxCell>
                <mxCell id="84q6WzrrNXM6b--ruY_1-33" value="" style="endArrow=classic;html=1;strokeColor=#000000;" parent="84q6WzrrNXM6b--ruY_1-1" edge="1">
                    <mxGeometry width="50" height="50" relative="1" as="geometry">
                        <mxPoint x="40" y="280" as="sourcePoint"/>
                        <mxPoint x="140" y="280" as="targetPoint"/>
                        <Array as="points">
                            <mxPoint x="140" y="280"/>
                        </Array>
                    </mxGeometry>
                </mxCell>
                <mxCell id="84q6WzrrNXM6b--ruY_1-34" value="adress[12]" style="edgeLabel;html=1;align=center;verticalAlign=middle;resizable=0;points=[];" parent="84q6WzrrNXM6b--ruY_1-33" vertex="1" connectable="0">
                    <mxGeometry x="-0.2154" y="3" relative="1" as="geometry">
                        <mxPoint as="offset"/>
                    </mxGeometry>
                </mxCell>
                <mxCell id="84q6WzrrNXM6b--ruY_1-35" value="adressビットの流れ" style="text;html=1;align=center;verticalAlign=middle;resizable=0;points=[];autosize=1;strokeColor=none;fillColor=none;fontColor=#000000;" parent="84q6WzrrNXM6b--ruY_1-1" vertex="1">
                    <mxGeometry x="40" y="470" width="120" height="20" as="geometry"/>
                </mxCell>
                <mxCell id="84q6WzrrNXM6b--ruY_1-36" value="" style="shape=table;startSize=0;container=1;collapsible=0;childLayout=tableLayout;fontColor=#FFFFFF;" parent="84q6WzrrNXM6b--ruY_1-1" vertex="1">
                    <mxGeometry x="40" y="500" width="640" height="90" as="geometry"/>
                </mxCell>
                <mxCell id="84q6WzrrNXM6b--ruY_1-37" value="" style="shape=partialRectangle;collapsible=0;dropTarget=0;pointerEvents=0;fillColor=none;top=0;left=0;bottom=0;right=0;points=[[0,0.5],[1,0.5]];portConstraint=eastwest;fontColor=#000000;" parent="84q6WzrrNXM6b--ruY_1-36" vertex="1">
                    <mxGeometry width="640" height="45" as="geometry"/>
                </mxCell>
                <mxCell id="84q6WzrrNXM6b--ruY_1-38" value="15" style="shape=partialRectangle;html=1;whiteSpace=wrap;connectable=0;overflow=hidden;fillColor=none;top=0;left=0;bottom=0;right=0;pointerEvents=1;fontColor=#FFFFFF;" parent="84q6WzrrNXM6b--ruY_1-37" vertex="1">
                    <mxGeometry width="40" height="45" as="geometry">
                        <mxRectangle width="40" height="45" as="alternateBounds"/>
                    </mxGeometry>
                </mxCell>
                <mxCell id="84q6WzrrNXM6b--ruY_1-39" value="14" style="shape=partialRectangle;html=1;whiteSpace=wrap;connectable=0;overflow=hidden;fillColor=none;top=0;left=0;bottom=0;right=0;pointerEvents=1;fontColor=#FFFFFF;" parent="84q6WzrrNXM6b--ruY_1-37" vertex="1">
                    <mxGeometry x="40" width="40" height="45" as="geometry">
                        <mxRectangle width="40" height="45" as="alternateBounds"/>
                    </mxGeometry>
                </mxCell>
                <mxCell id="84q6WzrrNXM6b--ruY_1-40" value="13" style="shape=partialRectangle;html=1;whiteSpace=wrap;connectable=0;overflow=hidden;fillColor=none;top=0;left=0;bottom=0;right=0;pointerEvents=1;fontColor=#FFFFFF;" parent="84q6WzrrNXM6b--ruY_1-37" vertex="1">
                    <mxGeometry x="80" width="40" height="45" as="geometry">
                        <mxRectangle width="40" height="45" as="alternateBounds"/>
                    </mxGeometry>
                </mxCell>
                <mxCell id="84q6WzrrNXM6b--ruY_1-41" value="12" style="shape=partialRectangle;html=1;whiteSpace=wrap;connectable=0;overflow=hidden;fillColor=none;top=0;left=0;bottom=0;right=0;pointerEvents=1;fontColor=#FFFFFF;" parent="84q6WzrrNXM6b--ruY_1-37" vertex="1">
                    <mxGeometry x="120" width="40" height="45" as="geometry">
                        <mxRectangle width="40" height="45" as="alternateBounds"/>
                    </mxGeometry>
                </mxCell>
                <mxCell id="84q6WzrrNXM6b--ruY_1-42" value="11" style="shape=partialRectangle;html=1;whiteSpace=wrap;connectable=0;overflow=hidden;fillColor=none;top=0;left=0;bottom=0;right=0;pointerEvents=1;fontColor=#FFFFFF;" parent="84q6WzrrNXM6b--ruY_1-37" vertex="1">
                    <mxGeometry x="160" width="40" height="45" as="geometry">
                        <mxRectangle width="40" height="45" as="alternateBounds"/>
                    </mxGeometry>
                </mxCell>
                <mxCell id="84q6WzrrNXM6b--ruY_1-43" value="10" style="shape=partialRectangle;html=1;whiteSpace=wrap;connectable=0;overflow=hidden;fillColor=none;top=0;left=0;bottom=0;right=0;pointerEvents=1;fontColor=#FFFFFF;" parent="84q6WzrrNXM6b--ruY_1-37" vertex="1">
                    <mxGeometry x="200" width="40" height="45" as="geometry">
                        <mxRectangle width="40" height="45" as="alternateBounds"/>
                    </mxGeometry>
                </mxCell>
                <mxCell id="84q6WzrrNXM6b--ruY_1-44" value="9" style="shape=partialRectangle;html=1;whiteSpace=wrap;connectable=0;overflow=hidden;fillColor=none;top=0;left=0;bottom=0;right=0;pointerEvents=1;fontColor=#FFFFFF;" parent="84q6WzrrNXM6b--ruY_1-37" vertex="1">
                    <mxGeometry x="240" width="40" height="45" as="geometry">
                        <mxRectangle width="40" height="45" as="alternateBounds"/>
                    </mxGeometry>
                </mxCell>
                <mxCell id="84q6WzrrNXM6b--ruY_1-45" value="8" style="shape=partialRectangle;html=1;whiteSpace=wrap;connectable=0;overflow=hidden;fillColor=none;top=0;left=0;bottom=0;right=0;pointerEvents=1;fontColor=#FFFFFF;" parent="84q6WzrrNXM6b--ruY_1-37" vertex="1">
                    <mxGeometry x="280" width="40" height="45" as="geometry">
                        <mxRectangle width="40" height="45" as="alternateBounds"/>
                    </mxGeometry>
                </mxCell>
                <mxCell id="84q6WzrrNXM6b--ruY_1-46" value="7" style="shape=partialRectangle;html=1;whiteSpace=wrap;connectable=0;overflow=hidden;fillColor=none;top=0;left=0;bottom=0;right=0;pointerEvents=1;fontColor=#FFFFFF;" parent="84q6WzrrNXM6b--ruY_1-37" vertex="1">
                    <mxGeometry x="320" width="40" height="45" as="geometry">
                        <mxRectangle width="40" height="45" as="alternateBounds"/>
                    </mxGeometry>
                </mxCell>
                <mxCell id="84q6WzrrNXM6b--ruY_1-47" value="6" style="shape=partialRectangle;html=1;whiteSpace=wrap;connectable=0;overflow=hidden;fillColor=none;top=0;left=0;bottom=0;right=0;pointerEvents=1;fontColor=#FFFFFF;" parent="84q6WzrrNXM6b--ruY_1-37" vertex="1">
                    <mxGeometry x="360" width="40" height="45" as="geometry">
                        <mxRectangle width="40" height="45" as="alternateBounds"/>
                    </mxGeometry>
                </mxCell>
                <mxCell id="84q6WzrrNXM6b--ruY_1-48" value="5" style="shape=partialRectangle;html=1;whiteSpace=wrap;connectable=0;overflow=hidden;fillColor=none;top=0;left=0;bottom=0;right=0;pointerEvents=1;fontColor=#FFFFFF;" parent="84q6WzrrNXM6b--ruY_1-37" vertex="1">
                    <mxGeometry x="400" width="40" height="45" as="geometry">
                        <mxRectangle width="40" height="45" as="alternateBounds"/>
                    </mxGeometry>
                </mxCell>
                <mxCell id="84q6WzrrNXM6b--ruY_1-49" value="4" style="shape=partialRectangle;html=1;whiteSpace=wrap;connectable=0;overflow=hidden;fillColor=none;top=0;left=0;bottom=0;right=0;pointerEvents=1;fontColor=#FFFFFF;" parent="84q6WzrrNXM6b--ruY_1-37" vertex="1">
                    <mxGeometry x="440" width="40" height="45" as="geometry">
                        <mxRectangle width="40" height="45" as="alternateBounds"/>
                    </mxGeometry>
                </mxCell>
                <mxCell id="84q6WzrrNXM6b--ruY_1-50" value="3" style="shape=partialRectangle;html=1;whiteSpace=wrap;connectable=0;overflow=hidden;fillColor=none;top=0;left=0;bottom=0;right=0;pointerEvents=1;fontColor=#FFFFFF;" parent="84q6WzrrNXM6b--ruY_1-37" vertex="1">
                    <mxGeometry x="480" width="40" height="45" as="geometry">
                        <mxRectangle width="40" height="45" as="alternateBounds"/>
                    </mxGeometry>
                </mxCell>
                <mxCell id="84q6WzrrNXM6b--ruY_1-51" value="2" style="shape=partialRectangle;html=1;whiteSpace=wrap;connectable=0;overflow=hidden;fillColor=none;top=0;left=0;bottom=0;right=0;pointerEvents=1;fontColor=#FFFFFF;" parent="84q6WzrrNXM6b--ruY_1-37" vertex="1">
                    <mxGeometry x="520" width="40" height="45" as="geometry">
                        <mxRectangle width="40" height="45" as="alternateBounds"/>
                    </mxGeometry>
                </mxCell>
                <mxCell id="84q6WzrrNXM6b--ruY_1-52" value="1" style="shape=partialRectangle;html=1;whiteSpace=wrap;connectable=0;overflow=hidden;fillColor=none;top=0;left=0;bottom=0;right=0;pointerEvents=1;fontColor=#FFFFFF;" parent="84q6WzrrNXM6b--ruY_1-37" vertex="1">
                    <mxGeometry x="560" width="40" height="45" as="geometry">
                        <mxRectangle width="40" height="45" as="alternateBounds"/>
                    </mxGeometry>
                </mxCell>
                <mxCell id="84q6WzrrNXM6b--ruY_1-53" value="0" style="shape=partialRectangle;html=1;whiteSpace=wrap;connectable=0;overflow=hidden;fillColor=none;top=0;left=0;bottom=0;right=0;pointerEvents=1;fontColor=#FFFFFF;" parent="84q6WzrrNXM6b--ruY_1-37" vertex="1">
                    <mxGeometry x="600" width="40" height="45" as="geometry">
                        <mxRectangle width="40" height="45" as="alternateBounds"/>
                    </mxGeometry>
                </mxCell>
                <mxCell id="84q6WzrrNXM6b--ruY_1-54" value="" style="shape=partialRectangle;collapsible=0;dropTarget=0;pointerEvents=0;fillColor=none;top=0;left=0;bottom=0;right=0;points=[[0,0.5],[1,0.5]];portConstraint=eastwest;fontColor=#000000;" parent="84q6WzrrNXM6b--ruY_1-36" vertex="1">
                    <mxGeometry y="45" width="640" height="45" as="geometry"/>
                </mxCell>
                <mxCell id="84q6WzrrNXM6b--ruY_1-55" value="0" style="shape=partialRectangle;html=1;whiteSpace=wrap;connectable=0;overflow=hidden;fillColor=none;top=0;left=0;bottom=0;right=0;pointerEvents=1;fontColor=#FFFFFF;" parent="84q6WzrrNXM6b--ruY_1-54" vertex="1">
                    <mxGeometry width="40" height="45" as="geometry">
                        <mxRectangle width="40" height="45" as="alternateBounds"/>
                    </mxGeometry>
                </mxCell>
                <mxCell id="84q6WzrrNXM6b--ruY_1-56" value="0" style="shape=partialRectangle;html=1;whiteSpace=wrap;connectable=0;overflow=hidden;fillColor=none;top=0;left=0;bottom=0;right=0;pointerEvents=1;fontColor=#FFFFFF;" parent="84q6WzrrNXM6b--ruY_1-54" vertex="1">
                    <mxGeometry x="40" width="40" height="45" as="geometry">
                        <mxRectangle width="40" height="45" as="alternateBounds"/>
                    </mxGeometry>
                </mxCell>
                <mxCell id="84q6WzrrNXM6b--ruY_1-57" value="0" style="shape=partialRectangle;html=1;whiteSpace=wrap;connectable=0;overflow=hidden;fillColor=none;top=0;left=0;bottom=0;right=0;pointerEvents=1;fontColor=#FFFFFF;" parent="84q6WzrrNXM6b--ruY_1-54" vertex="1">
                    <mxGeometry x="80" width="40" height="45" as="geometry">
                        <mxRectangle width="40" height="45" as="alternateBounds"/>
                    </mxGeometry>
                </mxCell>
                <mxCell id="84q6WzrrNXM6b--ruY_1-58" value="0" style="shape=partialRectangle;html=1;whiteSpace=wrap;connectable=0;overflow=hidden;fillColor=none;top=0;left=0;bottom=0;right=0;pointerEvents=1;fontColor=#FFFFFF;" parent="84q6WzrrNXM6b--ruY_1-54" vertex="1">
                    <mxGeometry x="120" width="40" height="45" as="geometry">
                        <mxRectangle width="40" height="45" as="alternateBounds"/>
                    </mxGeometry>
                </mxCell>
                <mxCell id="84q6WzrrNXM6b--ruY_1-59" value="" style="shape=partialRectangle;html=1;whiteSpace=wrap;connectable=0;overflow=hidden;fillColor=#a20025;top=0;left=0;bottom=0;right=0;pointerEvents=1;fontColor=#ffffff;strokeColor=#6F0000;" parent="84q6WzrrNXM6b--ruY_1-54" vertex="1">
                    <mxGeometry x="160" width="40" height="45" as="geometry">
                        <mxRectangle width="40" height="45" as="alternateBounds"/>
                    </mxGeometry>
                </mxCell>
                <mxCell id="84q6WzrrNXM6b--ruY_1-60" value="" style="shape=partialRectangle;html=1;whiteSpace=wrap;connectable=0;overflow=hidden;fillColor=#a20025;top=0;left=0;bottom=0;right=0;pointerEvents=1;fontColor=#ffffff;strokeColor=#6F0000;" parent="84q6WzrrNXM6b--ruY_1-54" vertex="1">
                    <mxGeometry x="200" width="40" height="45" as="geometry">
                        <mxRectangle width="40" height="45" as="alternateBounds"/>
                    </mxGeometry>
                </mxCell>
                <mxCell id="84q6WzrrNXM6b--ruY_1-61" value="" style="shape=partialRectangle;html=1;whiteSpace=wrap;connectable=0;overflow=hidden;fillColor=#a20025;top=0;left=0;bottom=0;right=0;pointerEvents=1;fontColor=#ffffff;strokeColor=#6F0000;" parent="84q6WzrrNXM6b--ruY_1-54" vertex="1">
                    <mxGeometry x="240" width="40" height="45" as="geometry">
                        <mxRectangle width="40" height="45" as="alternateBounds"/>
                    </mxGeometry>
                </mxCell>
                <mxCell id="84q6WzrrNXM6b--ruY_1-62" value="" style="shape=partialRectangle;html=1;whiteSpace=wrap;connectable=0;overflow=hidden;fillColor=#1ba1e2;top=0;left=0;bottom=0;right=0;pointerEvents=1;fontColor=#ffffff;strokeColor=#006EAF;" parent="84q6WzrrNXM6b--ruY_1-54" vertex="1">
                    <mxGeometry x="280" width="40" height="45" as="geometry">
                        <mxRectangle width="40" height="45" as="alternateBounds"/>
                    </mxGeometry>
                </mxCell>
                <mxCell id="84q6WzrrNXM6b--ruY_1-63" value="" style="shape=partialRectangle;html=1;whiteSpace=wrap;connectable=0;overflow=hidden;fillColor=#1ba1e2;top=0;left=0;bottom=0;right=0;pointerEvents=1;fontColor=#ffffff;strokeColor=#006EAF;" parent="84q6WzrrNXM6b--ruY_1-54" vertex="1">
                    <mxGeometry x="320" width="40" height="45" as="geometry">
                        <mxRectangle width="40" height="45" as="alternateBounds"/>
                    </mxGeometry>
                </mxCell>
                <mxCell id="84q6WzrrNXM6b--ruY_1-64" value="" style="shape=partialRectangle;html=1;whiteSpace=wrap;connectable=0;overflow=hidden;top=0;left=0;bottom=0;right=0;pointerEvents=1;fillColor=#1ba1e2;fontColor=#ffffff;strokeColor=#006EAF;" parent="84q6WzrrNXM6b--ruY_1-54" vertex="1">
                    <mxGeometry x="360" width="40" height="45" as="geometry">
                        <mxRectangle width="40" height="45" as="alternateBounds"/>
                    </mxGeometry>
                </mxCell>
                <mxCell id="84q6WzrrNXM6b--ruY_1-65" value="" style="shape=partialRectangle;html=1;whiteSpace=wrap;connectable=0;overflow=hidden;fillColor=#1ba1e2;top=0;left=0;bottom=0;right=0;pointerEvents=1;fontColor=#ffffff;strokeColor=#006EAF;" parent="84q6WzrrNXM6b--ruY_1-54" vertex="1">
                    <mxGeometry x="400" width="40" height="45" as="geometry">
                        <mxRectangle width="40" height="45" as="alternateBounds"/>
                    </mxGeometry>
                </mxCell>
                <mxCell id="84q6WzrrNXM6b--ruY_1-66" value="" style="shape=partialRectangle;html=1;whiteSpace=wrap;connectable=0;overflow=hidden;fillColor=#1ba1e2;top=0;left=0;bottom=0;right=0;pointerEvents=1;fontColor=#ffffff;strokeColor=#006EAF;" parent="84q6WzrrNXM6b--ruY_1-54" vertex="1">
                    <mxGeometry x="440" width="40" height="45" as="geometry">
                        <mxRectangle width="40" height="45" as="alternateBounds"/>
                    </mxGeometry>
                </mxCell>
                <mxCell id="84q6WzrrNXM6b--ruY_1-67" value="" style="shape=partialRectangle;html=1;whiteSpace=wrap;connectable=0;overflow=hidden;fillColor=#1ba1e2;top=0;left=0;bottom=0;right=0;pointerEvents=1;fontColor=#ffffff;strokeColor=#006EAF;" parent="84q6WzrrNXM6b--ruY_1-54" vertex="1">
                    <mxGeometry x="480" width="40" height="45" as="geometry">
                        <mxRectangle width="40" height="45" as="alternateBounds"/>
                    </mxGeometry>
                </mxCell>
                <mxCell id="84q6WzrrNXM6b--ruY_1-68" value="" style="shape=partialRectangle;html=1;whiteSpace=wrap;connectable=0;overflow=hidden;fillColor=#1ba1e2;top=0;left=0;bottom=0;right=0;pointerEvents=1;fontColor=#ffffff;strokeColor=#000000;" parent="84q6WzrrNXM6b--ruY_1-54" vertex="1">
                    <mxGeometry x="520" width="40" height="45" as="geometry">
                        <mxRectangle width="40" height="45" as="alternateBounds"/>
                    </mxGeometry>
                </mxCell>
                <mxCell id="84q6WzrrNXM6b--ruY_1-69" value="" style="shape=partialRectangle;html=1;whiteSpace=wrap;connectable=0;overflow=hidden;fillColor=#1ba1e2;top=0;left=0;bottom=0;right=0;pointerEvents=1;fontColor=#ffffff;strokeColor=#000000;" parent="84q6WzrrNXM6b--ruY_1-54" vertex="1">
                    <mxGeometry x="560" width="40" height="45" as="geometry">
                        <mxRectangle width="40" height="45" as="alternateBounds"/>
                    </mxGeometry>
                </mxCell>
                <mxCell id="84q6WzrrNXM6b--ruY_1-70" style="shape=partialRectangle;html=1;whiteSpace=wrap;connectable=0;overflow=hidden;fillColor=#1ba1e2;top=0;left=0;bottom=0;right=0;pointerEvents=1;fontColor=#ffffff;strokeColor=#000000;" parent="84q6WzrrNXM6b--ruY_1-54" vertex="1">
                    <mxGeometry x="600" width="40" height="45" as="geometry">
                        <mxRectangle width="40" height="45" as="alternateBounds"/>
                    </mxGeometry>
                </mxCell>
                <mxCell id="84q6WzrrNXM6b--ruY_1-71" style="edgeStyle=none;html=1;entryX=0.253;entryY=1.011;entryDx=0;entryDy=0;entryPerimeter=0;fontColor=#FFFFFF;strokeColor=#000000;exitX=1;exitY=0.5;exitDx=0;exitDy=0;" parent="84q6WzrrNXM6b--ruY_1-1" source="84q6WzrrNXM6b--ruY_1-72" target="84q6WzrrNXM6b--ruY_1-54" edge="1">
                    <mxGeometry relative="1" as="geometry"/>
                </mxCell>
                <mxCell id="84q6WzrrNXM6b--ruY_1-72" value="使用しない" style="whiteSpace=wrap;html=1;rounded=1;arcSize=50;align=center;verticalAlign=middle;strokeWidth=1;autosize=1;spacing=4;treeFolding=1;treeMoving=1;newEdgeStyle={&quot;edgeStyle&quot;:&quot;entityRelationEdgeStyle&quot;,&quot;startArrow&quot;:&quot;none&quot;,&quot;endArrow&quot;:&quot;none&quot;,&quot;segment&quot;:10,&quot;curved&quot;:1};fontColor=#FFFFFF;" parent="84q6WzrrNXM6b--ruY_1-1" vertex="1">
                    <mxGeometry x="80" y="660" width="100" height="30" as="geometry"/>
                </mxCell>
                <mxCell id="84q6WzrrNXM6b--ruY_1-73" value="" style="edgeStyle=entityRelationEdgeStyle;startArrow=none;endArrow=none;segment=10;curved=1;fontColor=#FFFFFF;strokeColor=#000000;exitX=0.005;exitY=1.052;exitDx=0;exitDy=0;exitPerimeter=0;" parent="84q6WzrrNXM6b--ruY_1-1" source="84q6WzrrNXM6b--ruY_1-54" target="84q6WzrrNXM6b--ruY_1-72" edge="1">
                    <mxGeometry relative="1" as="geometry">
                        <mxPoint x="160" y="680" as="sourcePoint"/>
                    </mxGeometry>
                </mxCell>
                <mxCell id="84q6WzrrNXM6b--ruY_1-74" style="edgeStyle=none;html=1;entryX=0.248;entryY=1.011;entryDx=0;entryDy=0;entryPerimeter=0;fontColor=#FFFFFF;strokeColor=#000000;" parent="84q6WzrrNXM6b--ruY_1-1" source="84q6WzrrNXM6b--ruY_1-76" target="84q6WzrrNXM6b--ruY_1-54" edge="1">
                    <mxGeometry relative="1" as="geometry"/>
                </mxCell>
                <mxCell id="84q6WzrrNXM6b--ruY_1-75" style="edgeStyle=none;html=1;entryX=0.436;entryY=1.011;entryDx=0;entryDy=0;entryPerimeter=0;fontColor=#FFFFFF;strokeColor=#000000;" parent="84q6WzrrNXM6b--ruY_1-1" source="84q6WzrrNXM6b--ruY_1-76" target="84q6WzrrNXM6b--ruY_1-54" edge="1">
                    <mxGeometry relative="1" as="geometry"/>
                </mxCell>
                <mxCell id="84q6WzrrNXM6b--ruY_1-76" value="RAM512選び" style="whiteSpace=wrap;html=1;rounded=1;arcSize=50;align=center;verticalAlign=middle;strokeWidth=1;autosize=1;spacing=4;treeFolding=1;treeMoving=1;newEdgeStyle={&quot;edgeStyle&quot;:&quot;entityRelationEdgeStyle&quot;,&quot;startArrow&quot;:&quot;none&quot;,&quot;endArrow&quot;:&quot;none&quot;,&quot;segment&quot;:10,&quot;curved&quot;:1};fontColor=#ffffff;fillColor=#a20025;strokeColor=#6F0000;" parent="84q6WzrrNXM6b--ruY_1-1" vertex="1">
                    <mxGeometry x="205" y="660" width="110" height="30" as="geometry"/>
                </mxCell>
                <mxCell id="84q6WzrrNXM6b--ruY_1-77" style="edgeStyle=none;html=1;entryX=0.441;entryY=1.056;entryDx=0;entryDy=0;entryPerimeter=0;fontColor=#FFFFFF;strokeColor=#000000;" parent="84q6WzrrNXM6b--ruY_1-1" source="84q6WzrrNXM6b--ruY_1-79" target="84q6WzrrNXM6b--ruY_1-54" edge="1">
                    <mxGeometry relative="1" as="geometry"/>
                </mxCell>
                <mxCell id="84q6WzrrNXM6b--ruY_1-78" style="edgeStyle=none;html=1;entryX=0.994;entryY=1.052;entryDx=0;entryDy=0;entryPerimeter=0;fontColor=#FFFFFF;strokeColor=#000000;" parent="84q6WzrrNXM6b--ruY_1-1" source="84q6WzrrNXM6b--ruY_1-79" target="84q6WzrrNXM6b--ruY_1-54" edge="1">
                    <mxGeometry relative="1" as="geometry"/>
                </mxCell>
                <mxCell id="84q6WzrrNXM6b--ruY_1-79" value="RAM8内" style="whiteSpace=wrap;html=1;rounded=1;arcSize=50;align=center;verticalAlign=middle;strokeWidth=1;autosize=1;spacing=4;treeFolding=1;treeMoving=1;newEdgeStyle={&quot;edgeStyle&quot;:&quot;entityRelationEdgeStyle&quot;,&quot;startArrow&quot;:&quot;none&quot;,&quot;endArrow&quot;:&quot;none&quot;,&quot;segment&quot;:10,&quot;curved&quot;:1};fontColor=#ffffff;labelBackgroundColor=none;fillColor=#1ba1e2;strokeColor=#006EAF;" parent="84q6WzrrNXM6b--ruY_1-1" vertex="1">
                    <mxGeometry x="450" y="660" width="90" height="30" as="geometry"/>
                </mxCell>
                <mxCell id="84q6WzrrNXM6b--ruY_1-80" value="&quot;何桁台&quot;&lt;br&gt;のRAMかみたいなイメージ" style="text;html=1;align=center;verticalAlign=middle;resizable=0;points=[];autosize=1;strokeColor=#6F0000;fillColor=#a20025;fontColor=#ffffff;" parent="84q6WzrrNXM6b--ruY_1-1" vertex="1">
                    <mxGeometry x="180" y="720" width="160" height="30" as="geometry"/>
                </mxCell>
                <mxCell id="84q6WzrrNXM6b--ruY_1-81" value="RAM512" style="rounded=0;whiteSpace=wrap;html=1;" parent="84q6WzrrNXM6b--ruY_1-1" vertex="1">
                    <mxGeometry x="280" y="50" width="80" height="40" as="geometry"/>
                </mxCell>
            </root>
        </mxGraphModel>
    </diagram>
    <diagram id="a0S8aJUeEIeZGxnFd4yE" name="RAM16K">
        <mxGraphModel dx="635" dy="752" grid="1" gridSize="10" guides="1" tooltips="1" connect="1" arrows="1" fold="1" page="1" pageScale="1" pageWidth="827" pageHeight="1169" background="#ffffff" math="0" shadow="0">
            <root>
                <mxCell id="36ReRSW0G3_v7cEbt8vg-0"/>
                <mxCell id="36ReRSW0G3_v7cEbt8vg-1" parent="36ReRSW0G3_v7cEbt8vg-0"/>
                <mxCell id="36ReRSW0G3_v7cEbt8vg-3" style="edgeStyle=none;html=1;entryX=0;entryY=0.5;entryDx=0;entryDy=0;strokeColor=#000000;" parent="36ReRSW0G3_v7cEbt8vg-1" source="36ReRSW0G3_v7cEbt8vg-10" target="36ReRSW0G3_v7cEbt8vg-81" edge="1">
                    <mxGeometry relative="1" as="geometry">
                        <mxPoint x="280" y="120" as="targetPoint"/>
                    </mxGeometry>
                </mxCell>
                <mxCell id="36ReRSW0G3_v7cEbt8vg-4" style="edgeStyle=none;html=1;entryX=0;entryY=0.5;entryDx=0;entryDy=0;strokeColor=#000000;" parent="36ReRSW0G3_v7cEbt8vg-1" source="36ReRSW0G3_v7cEbt8vg-10" target="36ReRSW0G3_v7cEbt8vg-15" edge="1">
                    <mxGeometry relative="1" as="geometry"/>
                </mxCell>
                <mxCell id="36ReRSW0G3_v7cEbt8vg-6" style="edgeStyle=none;html=1;entryX=0;entryY=0.5;entryDx=0;entryDy=0;strokeColor=#000000;" parent="36ReRSW0G3_v7cEbt8vg-1" source="36ReRSW0G3_v7cEbt8vg-10" target="36ReRSW0G3_v7cEbt8vg-19" edge="1">
                    <mxGeometry relative="1" as="geometry"/>
                </mxCell>
                <mxCell id="36ReRSW0G3_v7cEbt8vg-8" style="edgeStyle=none;html=1;entryX=0;entryY=0.5;entryDx=0;entryDy=0;strokeColor=#000000;" parent="36ReRSW0G3_v7cEbt8vg-1" source="36ReRSW0G3_v7cEbt8vg-10" target="36ReRSW0G3_v7cEbt8vg-23" edge="1">
                    <mxGeometry relative="1" as="geometry"/>
                </mxCell>
                <mxCell id="36ReRSW0G3_v7cEbt8vg-10" value="Demux&lt;br&gt;4Way" style="shadow=0;dashed=0;align=center;html=1;strokeWidth=1;shape=mxgraph.electrical.abstract.mux2;operation=demux;" parent="36ReRSW0G3_v7cEbt8vg-1" vertex="1">
                    <mxGeometry x="150" y="190" width="80" height="120" as="geometry"/>
                </mxCell>
                <mxCell id="36ReRSW0G3_v7cEbt8vg-11" style="edgeStyle=none;html=1;entryX=0.116;entryY=0.26;entryDx=0;entryDy=0;entryPerimeter=0;strokeColor=#000000;exitX=1;exitY=0.5;exitDx=0;exitDy=0;" parent="36ReRSW0G3_v7cEbt8vg-1" source="36ReRSW0G3_v7cEbt8vg-81" target="36ReRSW0G3_v7cEbt8vg-28" edge="1">
                    <mxGeometry relative="1" as="geometry">
                        <mxPoint x="360" y="70" as="sourcePoint"/>
                    </mxGeometry>
                </mxCell>
                <mxCell id="36ReRSW0G3_v7cEbt8vg-14" style="edgeStyle=none;html=1;entryX=0.1;entryY=0.33;entryDx=0;entryDy=0;entryPerimeter=0;strokeColor=#000000;exitX=1;exitY=0.5;exitDx=0;exitDy=0;" parent="36ReRSW0G3_v7cEbt8vg-1" source="36ReRSW0G3_v7cEbt8vg-15" target="36ReRSW0G3_v7cEbt8vg-28" edge="1">
                    <mxGeometry relative="1" as="geometry"/>
                </mxCell>
                <mxCell id="36ReRSW0G3_v7cEbt8vg-15" value="RAM4K" style="rounded=0;whiteSpace=wrap;html=1;" parent="36ReRSW0G3_v7cEbt8vg-1" vertex="1">
                    <mxGeometry x="280" y="170" width="80" height="40" as="geometry"/>
                </mxCell>
                <mxCell id="36ReRSW0G3_v7cEbt8vg-19" value="RAM4K" style="rounded=0;whiteSpace=wrap;html=1;" parent="36ReRSW0G3_v7cEbt8vg-1" vertex="1">
                    <mxGeometry x="280" y="270" width="80" height="40" as="geometry"/>
                </mxCell>
                <mxCell id="36ReRSW0G3_v7cEbt8vg-20" style="edgeStyle=none;html=1;entryX=0.142;entryY=0.441;entryDx=0;entryDy=0;entryPerimeter=0;strokeColor=#000000;exitX=1;exitY=0.5;exitDx=0;exitDy=0;" parent="36ReRSW0G3_v7cEbt8vg-1" source="36ReRSW0G3_v7cEbt8vg-19" target="36ReRSW0G3_v7cEbt8vg-28" edge="1">
                    <mxGeometry relative="1" as="geometry">
                        <mxPoint x="360" y="320" as="sourcePoint"/>
                    </mxGeometry>
                </mxCell>
                <mxCell id="36ReRSW0G3_v7cEbt8vg-22" style="edgeStyle=none;html=1;entryX=0.1;entryY=0.598;entryDx=0;entryDy=0;entryPerimeter=0;strokeColor=#000000;exitX=1;exitY=0.5;exitDx=0;exitDy=0;" parent="36ReRSW0G3_v7cEbt8vg-1" source="36ReRSW0G3_v7cEbt8vg-23" target="36ReRSW0G3_v7cEbt8vg-28" edge="1">
                    <mxGeometry relative="1" as="geometry"/>
                </mxCell>
                <mxCell id="36ReRSW0G3_v7cEbt8vg-23" value="RAM4K" style="rounded=0;whiteSpace=wrap;html=1;" parent="36ReRSW0G3_v7cEbt8vg-1" vertex="1">
                    <mxGeometry x="280" y="370" width="80" height="40" as="geometry"/>
                </mxCell>
                <mxCell id="36ReRSW0G3_v7cEbt8vg-26" style="edgeStyle=none;html=1;strokeColor=#000000;" parent="36ReRSW0G3_v7cEbt8vg-1" source="36ReRSW0G3_v7cEbt8vg-28" edge="1">
                    <mxGeometry relative="1" as="geometry">
                        <mxPoint x="561.5384615384614" y="240" as="targetPoint"/>
                    </mxGeometry>
                </mxCell>
                <mxCell id="36ReRSW0G3_v7cEbt8vg-27" value="out[16]" style="edgeLabel;html=1;align=center;verticalAlign=middle;resizable=0;points=[];" parent="36ReRSW0G3_v7cEbt8vg-26" vertex="1" connectable="0">
                    <mxGeometry x="-0.3212" relative="1" as="geometry">
                        <mxPoint x="3" as="offset"/>
                    </mxGeometry>
                </mxCell>
                <mxCell id="36ReRSW0G3_v7cEbt8vg-28" value="Mux&lt;br&gt;4Way16" style="shadow=0;dashed=0;align=center;html=1;strokeWidth=1;shape=mxgraph.electrical.abstract.mux2;" parent="36ReRSW0G3_v7cEbt8vg-1" vertex="1">
                    <mxGeometry x="414" y="180" width="80" height="120" as="geometry"/>
                </mxCell>
                <mxCell id="36ReRSW0G3_v7cEbt8vg-29" value="" style="endArrow=classic;html=1;strokeColor=#000000;" parent="36ReRSW0G3_v7cEbt8vg-1" edge="1">
                    <mxGeometry width="50" height="50" relative="1" as="geometry">
                        <mxPoint x="40" y="215" as="sourcePoint"/>
                        <mxPoint x="140" y="215" as="targetPoint"/>
                        <Array as="points">
                            <mxPoint x="140" y="215"/>
                        </Array>
                    </mxGeometry>
                </mxCell>
                <mxCell id="36ReRSW0G3_v7cEbt8vg-30" value="in[16]" style="edgeLabel;html=1;align=center;verticalAlign=middle;resizable=0;points=[];" parent="36ReRSW0G3_v7cEbt8vg-29" vertex="1" connectable="0">
                    <mxGeometry x="-0.2154" y="3" relative="1" as="geometry">
                        <mxPoint as="offset"/>
                    </mxGeometry>
                </mxCell>
                <mxCell id="36ReRSW0G3_v7cEbt8vg-31" value="" style="endArrow=classic;html=1;strokeColor=#000000;" parent="36ReRSW0G3_v7cEbt8vg-1" edge="1">
                    <mxGeometry width="50" height="50" relative="1" as="geometry">
                        <mxPoint x="40" y="249.23000000000002" as="sourcePoint"/>
                        <mxPoint x="140" y="249.23000000000002" as="targetPoint"/>
                        <Array as="points">
                            <mxPoint x="140" y="249.23"/>
                        </Array>
                    </mxGeometry>
                </mxCell>
                <mxCell id="36ReRSW0G3_v7cEbt8vg-32" value="load" style="edgeLabel;html=1;align=center;verticalAlign=middle;resizable=0;points=[];" parent="36ReRSW0G3_v7cEbt8vg-31" vertex="1" connectable="0">
                    <mxGeometry x="-0.2154" y="3" relative="1" as="geometry">
                        <mxPoint as="offset"/>
                    </mxGeometry>
                </mxCell>
                <mxCell id="36ReRSW0G3_v7cEbt8vg-33" value="" style="endArrow=classic;html=1;strokeColor=#000000;" parent="36ReRSW0G3_v7cEbt8vg-1" edge="1">
                    <mxGeometry width="50" height="50" relative="1" as="geometry">
                        <mxPoint x="40" y="280" as="sourcePoint"/>
                        <mxPoint x="140" y="280" as="targetPoint"/>
                        <Array as="points">
                            <mxPoint x="140" y="280"/>
                        </Array>
                    </mxGeometry>
                </mxCell>
                <mxCell id="36ReRSW0G3_v7cEbt8vg-34" value="adress[14]" style="edgeLabel;html=1;align=center;verticalAlign=middle;resizable=0;points=[];" parent="36ReRSW0G3_v7cEbt8vg-33" vertex="1" connectable="0">
                    <mxGeometry x="-0.2154" y="3" relative="1" as="geometry">
                        <mxPoint as="offset"/>
                    </mxGeometry>
                </mxCell>
                <mxCell id="36ReRSW0G3_v7cEbt8vg-35" value="adressビットの流れ" style="text;html=1;align=center;verticalAlign=middle;resizable=0;points=[];autosize=1;strokeColor=none;fillColor=none;fontColor=#000000;" parent="36ReRSW0G3_v7cEbt8vg-1" vertex="1">
                    <mxGeometry x="40" y="470" width="120" height="20" as="geometry"/>
                </mxCell>
                <mxCell id="36ReRSW0G3_v7cEbt8vg-36" value="" style="shape=table;startSize=0;container=1;collapsible=0;childLayout=tableLayout;fontColor=#FFFFFF;" parent="36ReRSW0G3_v7cEbt8vg-1" vertex="1">
                    <mxGeometry x="40" y="500" width="640" height="90" as="geometry"/>
                </mxCell>
                <mxCell id="36ReRSW0G3_v7cEbt8vg-37" value="" style="shape=partialRectangle;collapsible=0;dropTarget=0;pointerEvents=0;fillColor=none;top=0;left=0;bottom=0;right=0;points=[[0,0.5],[1,0.5]];portConstraint=eastwest;fontColor=#000000;" parent="36ReRSW0G3_v7cEbt8vg-36" vertex="1">
                    <mxGeometry width="640" height="45" as="geometry"/>
                </mxCell>
                <mxCell id="36ReRSW0G3_v7cEbt8vg-38" value="15" style="shape=partialRectangle;html=1;whiteSpace=wrap;connectable=0;overflow=hidden;fillColor=none;top=0;left=0;bottom=0;right=0;pointerEvents=1;fontColor=#FFFFFF;" parent="36ReRSW0G3_v7cEbt8vg-37" vertex="1">
                    <mxGeometry width="40" height="45" as="geometry">
                        <mxRectangle width="40" height="45" as="alternateBounds"/>
                    </mxGeometry>
                </mxCell>
                <mxCell id="36ReRSW0G3_v7cEbt8vg-39" value="14" style="shape=partialRectangle;html=1;whiteSpace=wrap;connectable=0;overflow=hidden;fillColor=none;top=0;left=0;bottom=0;right=0;pointerEvents=1;fontColor=#FFFFFF;" parent="36ReRSW0G3_v7cEbt8vg-37" vertex="1">
                    <mxGeometry x="40" width="40" height="45" as="geometry">
                        <mxRectangle width="40" height="45" as="alternateBounds"/>
                    </mxGeometry>
                </mxCell>
                <mxCell id="36ReRSW0G3_v7cEbt8vg-40" value="13" style="shape=partialRectangle;html=1;whiteSpace=wrap;connectable=0;overflow=hidden;fillColor=none;top=0;left=0;bottom=0;right=0;pointerEvents=1;fontColor=#FFFFFF;" parent="36ReRSW0G3_v7cEbt8vg-37" vertex="1">
                    <mxGeometry x="80" width="40" height="45" as="geometry">
                        <mxRectangle width="40" height="45" as="alternateBounds"/>
                    </mxGeometry>
                </mxCell>
                <mxCell id="36ReRSW0G3_v7cEbt8vg-41" value="12" style="shape=partialRectangle;html=1;whiteSpace=wrap;connectable=0;overflow=hidden;fillColor=none;top=0;left=0;bottom=0;right=0;pointerEvents=1;fontColor=#FFFFFF;" parent="36ReRSW0G3_v7cEbt8vg-37" vertex="1">
                    <mxGeometry x="120" width="40" height="45" as="geometry">
                        <mxRectangle width="40" height="45" as="alternateBounds"/>
                    </mxGeometry>
                </mxCell>
                <mxCell id="36ReRSW0G3_v7cEbt8vg-42" value="11" style="shape=partialRectangle;html=1;whiteSpace=wrap;connectable=0;overflow=hidden;fillColor=none;top=0;left=0;bottom=0;right=0;pointerEvents=1;fontColor=#FFFFFF;" parent="36ReRSW0G3_v7cEbt8vg-37" vertex="1">
                    <mxGeometry x="160" width="40" height="45" as="geometry">
                        <mxRectangle width="40" height="45" as="alternateBounds"/>
                    </mxGeometry>
                </mxCell>
                <mxCell id="36ReRSW0G3_v7cEbt8vg-43" value="10" style="shape=partialRectangle;html=1;whiteSpace=wrap;connectable=0;overflow=hidden;fillColor=none;top=0;left=0;bottom=0;right=0;pointerEvents=1;fontColor=#FFFFFF;" parent="36ReRSW0G3_v7cEbt8vg-37" vertex="1">
                    <mxGeometry x="200" width="40" height="45" as="geometry">
                        <mxRectangle width="40" height="45" as="alternateBounds"/>
                    </mxGeometry>
                </mxCell>
                <mxCell id="36ReRSW0G3_v7cEbt8vg-44" value="9" style="shape=partialRectangle;html=1;whiteSpace=wrap;connectable=0;overflow=hidden;fillColor=none;top=0;left=0;bottom=0;right=0;pointerEvents=1;fontColor=#FFFFFF;" parent="36ReRSW0G3_v7cEbt8vg-37" vertex="1">
                    <mxGeometry x="240" width="40" height="45" as="geometry">
                        <mxRectangle width="40" height="45" as="alternateBounds"/>
                    </mxGeometry>
                </mxCell>
                <mxCell id="36ReRSW0G3_v7cEbt8vg-45" value="8" style="shape=partialRectangle;html=1;whiteSpace=wrap;connectable=0;overflow=hidden;fillColor=none;top=0;left=0;bottom=0;right=0;pointerEvents=1;fontColor=#FFFFFF;" parent="36ReRSW0G3_v7cEbt8vg-37" vertex="1">
                    <mxGeometry x="280" width="40" height="45" as="geometry">
                        <mxRectangle width="40" height="45" as="alternateBounds"/>
                    </mxGeometry>
                </mxCell>
                <mxCell id="36ReRSW0G3_v7cEbt8vg-46" value="7" style="shape=partialRectangle;html=1;whiteSpace=wrap;connectable=0;overflow=hidden;fillColor=none;top=0;left=0;bottom=0;right=0;pointerEvents=1;fontColor=#FFFFFF;" parent="36ReRSW0G3_v7cEbt8vg-37" vertex="1">
                    <mxGeometry x="320" width="40" height="45" as="geometry">
                        <mxRectangle width="40" height="45" as="alternateBounds"/>
                    </mxGeometry>
                </mxCell>
                <mxCell id="36ReRSW0G3_v7cEbt8vg-47" value="6" style="shape=partialRectangle;html=1;whiteSpace=wrap;connectable=0;overflow=hidden;fillColor=none;top=0;left=0;bottom=0;right=0;pointerEvents=1;fontColor=#FFFFFF;" parent="36ReRSW0G3_v7cEbt8vg-37" vertex="1">
                    <mxGeometry x="360" width="40" height="45" as="geometry">
                        <mxRectangle width="40" height="45" as="alternateBounds"/>
                    </mxGeometry>
                </mxCell>
                <mxCell id="36ReRSW0G3_v7cEbt8vg-48" value="5" style="shape=partialRectangle;html=1;whiteSpace=wrap;connectable=0;overflow=hidden;fillColor=none;top=0;left=0;bottom=0;right=0;pointerEvents=1;fontColor=#FFFFFF;" parent="36ReRSW0G3_v7cEbt8vg-37" vertex="1">
                    <mxGeometry x="400" width="40" height="45" as="geometry">
                        <mxRectangle width="40" height="45" as="alternateBounds"/>
                    </mxGeometry>
                </mxCell>
                <mxCell id="36ReRSW0G3_v7cEbt8vg-49" value="4" style="shape=partialRectangle;html=1;whiteSpace=wrap;connectable=0;overflow=hidden;fillColor=none;top=0;left=0;bottom=0;right=0;pointerEvents=1;fontColor=#FFFFFF;" parent="36ReRSW0G3_v7cEbt8vg-37" vertex="1">
                    <mxGeometry x="440" width="40" height="45" as="geometry">
                        <mxRectangle width="40" height="45" as="alternateBounds"/>
                    </mxGeometry>
                </mxCell>
                <mxCell id="36ReRSW0G3_v7cEbt8vg-50" value="3" style="shape=partialRectangle;html=1;whiteSpace=wrap;connectable=0;overflow=hidden;fillColor=none;top=0;left=0;bottom=0;right=0;pointerEvents=1;fontColor=#FFFFFF;" parent="36ReRSW0G3_v7cEbt8vg-37" vertex="1">
                    <mxGeometry x="480" width="40" height="45" as="geometry">
                        <mxRectangle width="40" height="45" as="alternateBounds"/>
                    </mxGeometry>
                </mxCell>
                <mxCell id="36ReRSW0G3_v7cEbt8vg-51" value="2" style="shape=partialRectangle;html=1;whiteSpace=wrap;connectable=0;overflow=hidden;fillColor=none;top=0;left=0;bottom=0;right=0;pointerEvents=1;fontColor=#FFFFFF;" parent="36ReRSW0G3_v7cEbt8vg-37" vertex="1">
                    <mxGeometry x="520" width="40" height="45" as="geometry">
                        <mxRectangle width="40" height="45" as="alternateBounds"/>
                    </mxGeometry>
                </mxCell>
                <mxCell id="36ReRSW0G3_v7cEbt8vg-52" value="1" style="shape=partialRectangle;html=1;whiteSpace=wrap;connectable=0;overflow=hidden;fillColor=none;top=0;left=0;bottom=0;right=0;pointerEvents=1;fontColor=#FFFFFF;" parent="36ReRSW0G3_v7cEbt8vg-37" vertex="1">
                    <mxGeometry x="560" width="40" height="45" as="geometry">
                        <mxRectangle width="40" height="45" as="alternateBounds"/>
                    </mxGeometry>
                </mxCell>
                <mxCell id="36ReRSW0G3_v7cEbt8vg-53" value="0" style="shape=partialRectangle;html=1;whiteSpace=wrap;connectable=0;overflow=hidden;fillColor=none;top=0;left=0;bottom=0;right=0;pointerEvents=1;fontColor=#FFFFFF;" parent="36ReRSW0G3_v7cEbt8vg-37" vertex="1">
                    <mxGeometry x="600" width="40" height="45" as="geometry">
                        <mxRectangle width="40" height="45" as="alternateBounds"/>
                    </mxGeometry>
                </mxCell>
                <mxCell id="36ReRSW0G3_v7cEbt8vg-54" value="" style="shape=partialRectangle;collapsible=0;dropTarget=0;pointerEvents=0;fillColor=none;top=0;left=0;bottom=0;right=0;points=[[0,0.5],[1,0.5]];portConstraint=eastwest;fontColor=#000000;" parent="36ReRSW0G3_v7cEbt8vg-36" vertex="1">
                    <mxGeometry y="45" width="640" height="45" as="geometry"/>
                </mxCell>
                <mxCell id="36ReRSW0G3_v7cEbt8vg-55" value="0" style="shape=partialRectangle;html=1;whiteSpace=wrap;connectable=0;overflow=hidden;fillColor=none;top=0;left=0;bottom=0;right=0;pointerEvents=1;fontColor=#FFFFFF;" parent="36ReRSW0G3_v7cEbt8vg-54" vertex="1">
                    <mxGeometry width="40" height="45" as="geometry">
                        <mxRectangle width="40" height="45" as="alternateBounds"/>
                    </mxGeometry>
                </mxCell>
                <mxCell id="36ReRSW0G3_v7cEbt8vg-56" value="0" style="shape=partialRectangle;html=1;whiteSpace=wrap;connectable=0;overflow=hidden;fillColor=none;top=0;left=0;bottom=0;right=0;pointerEvents=1;fontColor=#FFFFFF;" parent="36ReRSW0G3_v7cEbt8vg-54" vertex="1">
                    <mxGeometry x="40" width="40" height="45" as="geometry">
                        <mxRectangle width="40" height="45" as="alternateBounds"/>
                    </mxGeometry>
                </mxCell>
                <mxCell id="36ReRSW0G3_v7cEbt8vg-57" value="" style="shape=partialRectangle;html=1;whiteSpace=wrap;connectable=0;overflow=hidden;fillColor=#a20025;top=0;left=0;bottom=0;right=0;pointerEvents=1;fontColor=#ffffff;strokeColor=#6F0000;" parent="36ReRSW0G3_v7cEbt8vg-54" vertex="1">
                    <mxGeometry x="80" width="40" height="45" as="geometry">
                        <mxRectangle width="40" height="45" as="alternateBounds"/>
                    </mxGeometry>
                </mxCell>
                <mxCell id="36ReRSW0G3_v7cEbt8vg-58" value="" style="shape=partialRectangle;html=1;whiteSpace=wrap;connectable=0;overflow=hidden;fillColor=#a20025;top=0;left=0;bottom=0;right=0;pointerEvents=1;fontColor=#ffffff;strokeColor=#6F0000;" parent="36ReRSW0G3_v7cEbt8vg-54" vertex="1">
                    <mxGeometry x="120" width="40" height="45" as="geometry">
                        <mxRectangle width="40" height="45" as="alternateBounds"/>
                    </mxGeometry>
                </mxCell>
                <mxCell id="36ReRSW0G3_v7cEbt8vg-59" value="" style="shape=partialRectangle;html=1;whiteSpace=wrap;connectable=0;overflow=hidden;fillColor=#1ba1e2;top=0;left=0;bottom=0;right=0;pointerEvents=1;fontColor=#ffffff;strokeColor=#006EAF;" parent="36ReRSW0G3_v7cEbt8vg-54" vertex="1">
                    <mxGeometry x="160" width="40" height="45" as="geometry">
                        <mxRectangle width="40" height="45" as="alternateBounds"/>
                    </mxGeometry>
                </mxCell>
                <mxCell id="36ReRSW0G3_v7cEbt8vg-60" value="" style="shape=partialRectangle;html=1;whiteSpace=wrap;connectable=0;overflow=hidden;fillColor=#1ba1e2;top=0;left=0;bottom=0;right=0;pointerEvents=1;fontColor=#ffffff;strokeColor=#006EAF;" parent="36ReRSW0G3_v7cEbt8vg-54" vertex="1">
                    <mxGeometry x="200" width="40" height="45" as="geometry">
                        <mxRectangle width="40" height="45" as="alternateBounds"/>
                    </mxGeometry>
                </mxCell>
                <mxCell id="36ReRSW0G3_v7cEbt8vg-61" value="" style="shape=partialRectangle;html=1;whiteSpace=wrap;connectable=0;overflow=hidden;fillColor=#1ba1e2;top=0;left=0;bottom=0;right=0;pointerEvents=1;fontColor=#ffffff;strokeColor=#006EAF;" parent="36ReRSW0G3_v7cEbt8vg-54" vertex="1">
                    <mxGeometry x="240" width="40" height="45" as="geometry">
                        <mxRectangle width="40" height="45" as="alternateBounds"/>
                    </mxGeometry>
                </mxCell>
                <mxCell id="36ReRSW0G3_v7cEbt8vg-62" value="" style="shape=partialRectangle;html=1;whiteSpace=wrap;connectable=0;overflow=hidden;fillColor=#1ba1e2;top=0;left=0;bottom=0;right=0;pointerEvents=1;fontColor=#ffffff;strokeColor=#006EAF;" parent="36ReRSW0G3_v7cEbt8vg-54" vertex="1">
                    <mxGeometry x="280" width="40" height="45" as="geometry">
                        <mxRectangle width="40" height="45" as="alternateBounds"/>
                    </mxGeometry>
                </mxCell>
                <mxCell id="36ReRSW0G3_v7cEbt8vg-63" value="" style="shape=partialRectangle;html=1;whiteSpace=wrap;connectable=0;overflow=hidden;fillColor=#1ba1e2;top=0;left=0;bottom=0;right=0;pointerEvents=1;fontColor=#ffffff;strokeColor=#006EAF;" parent="36ReRSW0G3_v7cEbt8vg-54" vertex="1">
                    <mxGeometry x="320" width="40" height="45" as="geometry">
                        <mxRectangle width="40" height="45" as="alternateBounds"/>
                    </mxGeometry>
                </mxCell>
                <mxCell id="36ReRSW0G3_v7cEbt8vg-64" value="" style="shape=partialRectangle;html=1;whiteSpace=wrap;connectable=0;overflow=hidden;top=0;left=0;bottom=0;right=0;pointerEvents=1;fillColor=#1ba1e2;fontColor=#ffffff;strokeColor=#006EAF;" parent="36ReRSW0G3_v7cEbt8vg-54" vertex="1">
                    <mxGeometry x="360" width="40" height="45" as="geometry">
                        <mxRectangle width="40" height="45" as="alternateBounds"/>
                    </mxGeometry>
                </mxCell>
                <mxCell id="36ReRSW0G3_v7cEbt8vg-65" value="" style="shape=partialRectangle;html=1;whiteSpace=wrap;connectable=0;overflow=hidden;fillColor=#1ba1e2;top=0;left=0;bottom=0;right=0;pointerEvents=1;fontColor=#ffffff;strokeColor=#006EAF;" parent="36ReRSW0G3_v7cEbt8vg-54" vertex="1">
                    <mxGeometry x="400" width="40" height="45" as="geometry">
                        <mxRectangle width="40" height="45" as="alternateBounds"/>
                    </mxGeometry>
                </mxCell>
                <mxCell id="36ReRSW0G3_v7cEbt8vg-66" value="" style="shape=partialRectangle;html=1;whiteSpace=wrap;connectable=0;overflow=hidden;fillColor=#1ba1e2;top=0;left=0;bottom=0;right=0;pointerEvents=1;fontColor=#ffffff;strokeColor=#006EAF;" parent="36ReRSW0G3_v7cEbt8vg-54" vertex="1">
                    <mxGeometry x="440" width="40" height="45" as="geometry">
                        <mxRectangle width="40" height="45" as="alternateBounds"/>
                    </mxGeometry>
                </mxCell>
                <mxCell id="36ReRSW0G3_v7cEbt8vg-67" value="" style="shape=partialRectangle;html=1;whiteSpace=wrap;connectable=0;overflow=hidden;fillColor=#1ba1e2;top=0;left=0;bottom=0;right=0;pointerEvents=1;fontColor=#ffffff;strokeColor=#006EAF;" parent="36ReRSW0G3_v7cEbt8vg-54" vertex="1">
                    <mxGeometry x="480" width="40" height="45" as="geometry">
                        <mxRectangle width="40" height="45" as="alternateBounds"/>
                    </mxGeometry>
                </mxCell>
                <mxCell id="36ReRSW0G3_v7cEbt8vg-68" value="" style="shape=partialRectangle;html=1;whiteSpace=wrap;connectable=0;overflow=hidden;fillColor=#1ba1e2;top=0;left=0;bottom=0;right=0;pointerEvents=1;fontColor=#ffffff;strokeColor=#000000;" parent="36ReRSW0G3_v7cEbt8vg-54" vertex="1">
                    <mxGeometry x="520" width="40" height="45" as="geometry">
                        <mxRectangle width="40" height="45" as="alternateBounds"/>
                    </mxGeometry>
                </mxCell>
                <mxCell id="36ReRSW0G3_v7cEbt8vg-69" value="" style="shape=partialRectangle;html=1;whiteSpace=wrap;connectable=0;overflow=hidden;fillColor=#1ba1e2;top=0;left=0;bottom=0;right=0;pointerEvents=1;fontColor=#ffffff;strokeColor=#000000;" parent="36ReRSW0G3_v7cEbt8vg-54" vertex="1">
                    <mxGeometry x="560" width="40" height="45" as="geometry">
                        <mxRectangle width="40" height="45" as="alternateBounds"/>
                    </mxGeometry>
                </mxCell>
                <mxCell id="36ReRSW0G3_v7cEbt8vg-70" style="shape=partialRectangle;html=1;whiteSpace=wrap;connectable=0;overflow=hidden;fillColor=#1ba1e2;top=0;left=0;bottom=0;right=0;pointerEvents=1;fontColor=#ffffff;strokeColor=#000000;" parent="36ReRSW0G3_v7cEbt8vg-54" vertex="1">
                    <mxGeometry x="600" width="40" height="45" as="geometry">
                        <mxRectangle width="40" height="45" as="alternateBounds"/>
                    </mxGeometry>
                </mxCell>
                <mxCell id="36ReRSW0G3_v7cEbt8vg-71" style="edgeStyle=none;html=1;entryX=0.121;entryY=1.015;entryDx=0;entryDy=0;entryPerimeter=0;fontColor=#FFFFFF;strokeColor=#000000;exitX=1;exitY=0.5;exitDx=0;exitDy=0;" parent="36ReRSW0G3_v7cEbt8vg-1" source="36ReRSW0G3_v7cEbt8vg-72" target="36ReRSW0G3_v7cEbt8vg-54" edge="1">
                    <mxGeometry relative="1" as="geometry"/>
                </mxCell>
                <mxCell id="36ReRSW0G3_v7cEbt8vg-72" value="使用しない" style="whiteSpace=wrap;html=1;rounded=1;arcSize=50;align=center;verticalAlign=middle;strokeWidth=1;autosize=1;spacing=4;treeFolding=1;treeMoving=1;newEdgeStyle={&quot;edgeStyle&quot;:&quot;entityRelationEdgeStyle&quot;,&quot;startArrow&quot;:&quot;none&quot;,&quot;endArrow&quot;:&quot;none&quot;,&quot;segment&quot;:10,&quot;curved&quot;:1};fontColor=#FFFFFF;" parent="36ReRSW0G3_v7cEbt8vg-1" vertex="1">
                    <mxGeometry x="30" y="660" width="100" height="30" as="geometry"/>
                </mxCell>
                <mxCell id="36ReRSW0G3_v7cEbt8vg-73" value="" style="edgeStyle=entityRelationEdgeStyle;startArrow=none;endArrow=none;segment=10;curved=1;fontColor=#FFFFFF;strokeColor=#000000;exitX=0.005;exitY=1.052;exitDx=0;exitDy=0;exitPerimeter=0;entryX=0;entryY=0.25;entryDx=0;entryDy=0;" parent="36ReRSW0G3_v7cEbt8vg-1" source="36ReRSW0G3_v7cEbt8vg-54" target="36ReRSW0G3_v7cEbt8vg-72" edge="1">
                    <mxGeometry relative="1" as="geometry">
                        <mxPoint x="160" y="680" as="sourcePoint"/>
                    </mxGeometry>
                </mxCell>
                <mxCell id="36ReRSW0G3_v7cEbt8vg-74" style="edgeStyle=none;html=1;entryX=0.128;entryY=1.064;entryDx=0;entryDy=0;entryPerimeter=0;fontColor=#FFFFFF;strokeColor=#000000;" parent="36ReRSW0G3_v7cEbt8vg-1" source="36ReRSW0G3_v7cEbt8vg-76" target="36ReRSW0G3_v7cEbt8vg-54" edge="1">
                    <mxGeometry relative="1" as="geometry"/>
                </mxCell>
                <mxCell id="36ReRSW0G3_v7cEbt8vg-75" style="edgeStyle=none;html=1;fontColor=#FFFFFF;strokeColor=#000000;entryX=0.248;entryY=1.015;entryDx=0;entryDy=0;entryPerimeter=0;" parent="36ReRSW0G3_v7cEbt8vg-1" source="36ReRSW0G3_v7cEbt8vg-76" target="36ReRSW0G3_v7cEbt8vg-54" edge="1">
                    <mxGeometry relative="1" as="geometry">
                        <mxPoint x="230" y="620" as="targetPoint"/>
                    </mxGeometry>
                </mxCell>
                <mxCell id="36ReRSW0G3_v7cEbt8vg-76" value="RAM4K選び" style="whiteSpace=wrap;html=1;rounded=1;arcSize=50;align=center;verticalAlign=middle;strokeWidth=1;autosize=1;spacing=4;treeFolding=1;treeMoving=1;newEdgeStyle={&quot;edgeStyle&quot;:&quot;entityRelationEdgeStyle&quot;,&quot;startArrow&quot;:&quot;none&quot;,&quot;endArrow&quot;:&quot;none&quot;,&quot;segment&quot;:10,&quot;curved&quot;:1};fontColor=#ffffff;fillColor=#a20025;strokeColor=#6F0000;" parent="36ReRSW0G3_v7cEbt8vg-1" vertex="1">
                    <mxGeometry x="125" y="660" width="110" height="30" as="geometry"/>
                </mxCell>
                <mxCell id="36ReRSW0G3_v7cEbt8vg-77" style="edgeStyle=none;html=1;entryX=0.251;entryY=0.99;entryDx=0;entryDy=0;entryPerimeter=0;fontColor=#FFFFFF;strokeColor=#000000;" parent="36ReRSW0G3_v7cEbt8vg-1" source="36ReRSW0G3_v7cEbt8vg-79" target="36ReRSW0G3_v7cEbt8vg-54" edge="1">
                    <mxGeometry relative="1" as="geometry"/>
                </mxCell>
                <mxCell id="36ReRSW0G3_v7cEbt8vg-78" style="edgeStyle=none;html=1;entryX=0.994;entryY=1.052;entryDx=0;entryDy=0;entryPerimeter=0;fontColor=#FFFFFF;strokeColor=#000000;" parent="36ReRSW0G3_v7cEbt8vg-1" source="36ReRSW0G3_v7cEbt8vg-79" target="36ReRSW0G3_v7cEbt8vg-54" edge="1">
                    <mxGeometry relative="1" as="geometry"/>
                </mxCell>
                <mxCell id="36ReRSW0G3_v7cEbt8vg-79" value="RAM8内" style="whiteSpace=wrap;html=1;rounded=1;arcSize=50;align=center;verticalAlign=middle;strokeWidth=1;autosize=1;spacing=4;treeFolding=1;treeMoving=1;newEdgeStyle={&quot;edgeStyle&quot;:&quot;entityRelationEdgeStyle&quot;,&quot;startArrow&quot;:&quot;none&quot;,&quot;endArrow&quot;:&quot;none&quot;,&quot;segment&quot;:10,&quot;curved&quot;:1};fontColor=#ffffff;labelBackgroundColor=none;fillColor=#1ba1e2;strokeColor=#006EAF;" parent="36ReRSW0G3_v7cEbt8vg-1" vertex="1">
                    <mxGeometry x="360" y="660" width="90" height="30" as="geometry"/>
                </mxCell>
                <mxCell id="36ReRSW0G3_v7cEbt8vg-80" value="&quot;何桁台&quot;&lt;br&gt;のRAMかみたいなイメージ" style="text;html=1;align=center;verticalAlign=middle;resizable=0;points=[];autosize=1;strokeColor=#6F0000;fillColor=#a20025;fontColor=#ffffff;" parent="36ReRSW0G3_v7cEbt8vg-1" vertex="1">
                    <mxGeometry x="110" y="720" width="160" height="30" as="geometry"/>
                </mxCell>
                <mxCell id="36ReRSW0G3_v7cEbt8vg-81" value="RAM4K" style="rounded=0;whiteSpace=wrap;html=1;" parent="36ReRSW0G3_v7cEbt8vg-1" vertex="1">
                    <mxGeometry x="280" y="70" width="80" height="40" as="geometry"/>
                </mxCell>
            </root>
        </mxGraphModel>
    </diagram>
</mxfile>